<svg width="157" height="58" viewBox="0 0 157 58" fill="none" xmlns="http://www.w3.org/2000/svg">
  <path d="M63.8868 37.0913H62.7422V35.7949H66.5074V37.0913H65.3708V41.5767H63.8888V37.0913H63.8868Z" fill="#939597"/>
  <path d="M68.084 35.7949H69.566V37.9676H71.4636V35.7949H72.9456V41.5787H71.4636V39.266H69.566V41.5787H68.084V35.7949Z" fill="#939597"/>
  <path d="M74.9785 35.795H78.2035V37.0914H76.3983V37.9897H78.1473V39.2861H76.3983V40.2784H78.2035V41.5748H74.9785V35.791V35.795Z" fill="#939597"/>
  <path d="M89.2637 39.4127C89.1793 39.7568 89.0448 40.0689 88.86 40.3469C88.6753 40.625 88.4524 40.8651 88.1974 41.0612C87.9403 41.2592 87.6532 41.4133 87.3339 41.5233C87.0146 41.6333 86.6792 41.6874 86.3298 41.6874C85.874 41.6874 85.4583 41.6033 85.0828 41.4373C84.7073 41.2712 84.384 41.0472 84.1189 40.7691C83.8518 40.491 83.645 40.1709 83.4944 39.8088C83.3458 39.4467 83.2715 39.0705 83.2715 38.6804C83.2715 38.3103 83.3398 37.9462 83.4803 37.5901C83.6189 37.234 83.8197 36.9139 84.0808 36.6338C84.3418 36.3517 84.6611 36.1236 85.0386 35.9496C85.4141 35.7755 85.8419 35.6875 86.3178 35.6875C86.7937 35.6875 87.1752 35.7655 87.5267 35.9216C87.8761 36.0776 88.1733 36.2697 88.4163 36.4998C88.6592 36.7298 88.852 36.9799 88.9926 37.25C89.1332 37.5201 89.2255 37.7681 89.2677 37.9922H87.7134C87.6713 37.8822 87.613 37.7701 87.5367 37.6521C87.4604 37.5341 87.366 37.426 87.2495 37.328C87.1351 37.228 86.9985 37.148 86.8419 37.0819C86.6853 37.0179 86.5065 36.9839 86.3077 36.9839C86.0567 36.9839 85.8358 37.0339 85.6451 37.1319C85.4543 37.232 85.2916 37.36 85.1591 37.5181C85.0266 37.6781 84.9242 37.8582 84.8579 38.0602C84.7896 38.2643 84.7555 38.4664 84.7555 38.6704C84.7555 38.8885 84.7916 39.1026 84.8659 39.3066C84.9382 39.5127 85.0426 39.6967 85.1752 39.8568C85.3077 40.0188 85.4724 40.1469 85.6651 40.2429C85.8579 40.3389 86.0748 40.387 86.3158 40.387C86.5567 40.387 86.7455 40.3449 86.9122 40.2629C87.0789 40.1789 87.2174 40.0829 87.3279 39.9728C87.4383 39.8628 87.5227 39.7548 87.5829 39.6487C87.6431 39.5427 87.6853 39.4627 87.7114 39.4107H89.2657L89.2637 39.4127Z" fill="#939597"/>
  <path d="M90.9906 37.5222C91.069 37.3341 91.1834 37.134 91.336 36.92C91.4866 36.7059 91.6794 36.5078 91.9124 36.3218C92.1453 36.1377 92.4204 35.9837 92.7357 35.8636C93.051 35.7436 93.4144 35.6836 93.8221 35.6836C94.2659 35.6836 94.6775 35.7636 95.053 35.9257C95.4306 36.0877 95.7539 36.3038 96.025 36.5779C96.2961 36.852 96.5089 37.1701 96.6615 37.5362C96.8122 37.9003 96.8885 38.2844 96.8885 38.6845C96.8885 39.0846 96.8122 39.4688 96.6615 39.8329C96.5089 40.197 96.2981 40.5171 96.025 40.7912C95.7539 41.0653 95.4286 41.2813 95.053 41.4434C94.6775 41.6054 94.2639 41.6855 93.814 41.6855C93.3642 41.6855 92.9425 41.6014 92.567 41.4354C92.1895 41.2693 91.8682 41.0493 91.6011 40.7752C91.334 40.5011 91.1272 40.189 90.9806 39.8369C90.834 39.4848 90.7617 39.1247 90.7617 38.7545C90.7617 38.5625 90.7778 38.3604 90.8079 38.1524C90.84 37.9443 90.9003 37.7322 90.9886 37.5202L90.9906 37.5222ZM92.2437 38.6705C92.2437 38.8946 92.2798 39.1087 92.3541 39.3147C92.4264 39.5208 92.5329 39.7028 92.6714 39.8609C92.81 40.0189 92.9767 40.147 93.1735 40.243C93.3703 40.339 93.5932 40.3871 93.8442 40.3871C94.0952 40.3871 94.3341 40.333 94.5309 40.227C94.7277 40.121 94.8884 39.9829 95.0169 39.8169C95.1454 39.6508 95.2418 39.4688 95.3081 39.2707C95.3743 39.0726 95.4065 38.8806 95.4065 38.6925C95.4065 38.5045 95.3743 38.3104 95.3081 38.1103C95.2438 37.9103 95.1454 37.7242 95.0169 37.5562C94.8884 37.3861 94.7257 37.2481 94.5269 37.142C94.3281 37.036 94.0952 36.982 93.8281 36.982C93.561 36.982 93.3441 37.032 93.1453 37.13C92.9465 37.2301 92.7799 37.3601 92.6473 37.5202C92.5148 37.6822 92.4124 37.8623 92.3461 38.0623C92.2778 38.2624 92.2437 38.4645 92.2437 38.6685V38.6705Z" fill="#939597"/>
  <path d="M98.6699 35.7949H99.9491L102.192 39.43L102.208 39.414L102.146 35.7949H103.566V41.5787H102.278L100.066 38.0616L100.049 38.0696L100.09 41.5787H98.6699V35.7949Z" fill="#939597"/>
  <path d="M107.878 37.4842C107.868 37.4381 107.856 37.3821 107.842 37.3161C107.83 37.2521 107.804 37.1881 107.768 37.128C107.731 37.068 107.679 37.018 107.615 36.98C107.549 36.94 107.458 36.922 107.344 36.922C107.213 36.922 107.095 36.964 106.99 37.046C106.886 37.13 106.834 37.2381 106.834 37.3741C106.834 37.4621 106.846 37.5362 106.874 37.5922C106.902 37.6482 106.956 37.7082 107.043 37.7682C107.129 37.8283 107.251 37.8963 107.408 37.9723C107.565 38.0483 107.774 38.1424 108.037 38.2584C108.308 38.3784 108.533 38.5005 108.707 38.6265C108.882 38.7505 109.021 38.8826 109.123 39.0166C109.225 39.1527 109.296 39.2947 109.334 39.4428C109.372 39.5908 109.392 39.7489 109.392 39.9149C109.392 40.129 109.358 40.341 109.29 40.5511C109.221 40.7632 109.109 40.9512 108.952 41.1173C108.796 41.2833 108.587 41.4214 108.328 41.5274C108.069 41.6334 107.749 41.6875 107.366 41.6875C106.948 41.6875 106.603 41.6254 106.33 41.5034C106.057 41.3814 105.844 41.2293 105.687 41.0453C105.531 40.8632 105.422 40.6651 105.362 40.4511C105.302 40.237 105.271 40.0369 105.271 39.8489V39.6608H106.745C106.745 39.8269 106.768 39.9629 106.812 40.067C106.856 40.171 106.912 40.251 106.976 40.309C107.043 40.367 107.109 40.4051 107.177 40.4231C107.245 40.4411 107.304 40.4511 107.35 40.4511C107.529 40.4511 107.667 40.3931 107.766 40.275C107.866 40.157 107.914 40.0309 107.914 39.8969C107.914 39.8029 107.898 39.7228 107.864 39.6548C107.83 39.5868 107.77 39.5248 107.683 39.4668C107.597 39.4088 107.48 39.3487 107.334 39.2827C107.187 39.2187 107.002 39.1387 106.778 39.0446C106.673 39.0026 106.541 38.9446 106.382 38.8686C106.221 38.7926 106.067 38.6905 105.916 38.5645C105.763 38.4364 105.633 38.2764 105.525 38.0843C105.414 37.8923 105.36 37.6602 105.36 37.3881C105.36 37.116 105.42 36.876 105.541 36.6659C105.661 36.4538 105.818 36.2758 106.01 36.1297C106.203 35.9837 106.42 35.8737 106.661 35.7976C106.902 35.7216 107.145 35.6836 107.39 35.6836C107.677 35.6836 107.964 35.7376 108.25 35.8436C108.535 35.9497 108.772 36.1157 108.958 36.3398C109.043 36.4438 109.109 36.5479 109.159 36.6479C109.209 36.7499 109.248 36.848 109.274 36.944C109.3 37.04 109.318 37.132 109.324 37.2221C109.332 37.3101 109.338 37.3961 109.344 37.4802H107.878V37.4842Z" fill="#939597"/>
  <path d="M111.775 37.0913H110.631V35.7949H114.396V37.0913H113.259V41.5767H111.777V37.0913H111.775Z" fill="#939597"/>
  <path d="M115.973 35.795H117.808C118.065 35.795 118.284 35.803 118.467 35.819C118.65 35.835 118.81 35.859 118.945 35.893C119.079 35.927 119.2 35.969 119.302 36.021C119.405 36.0731 119.503 36.1351 119.595 36.2091C119.836 36.3972 120.015 36.6332 120.134 36.9153C120.252 37.1994 120.31 37.4895 120.31 37.7876C120.31 37.9536 120.286 38.1337 120.24 38.3278C120.192 38.5198 120.113 38.7039 120.001 38.8779C119.889 39.052 119.74 39.206 119.553 39.3381C119.368 39.4701 119.139 39.5601 118.866 39.6082L120.443 41.5768H118.748L117.406 39.7082H117.39V41.5768H115.971V35.793L115.973 35.795ZM117.392 38.7019H117.919C118.137 38.7019 118.312 38.6719 118.441 38.6118C118.569 38.5518 118.666 38.4798 118.732 38.3938C118.796 38.3077 118.84 38.2177 118.86 38.1237C118.88 38.0297 118.892 37.9456 118.892 37.8736C118.892 37.6075 118.804 37.4115 118.629 37.2834C118.455 37.1554 118.222 37.0914 117.935 37.0914H117.394V38.7019H117.392Z" fill="#939597"/>
  <path d="M123.545 35.7949V39.288C123.545 39.388 123.551 39.5001 123.561 39.6281C123.571 39.7562 123.599 39.8762 123.647 39.9882C123.693 40.1003 123.767 40.1963 123.87 40.2743C123.972 40.3523 124.115 40.3923 124.298 40.3923C124.48 40.3923 124.623 40.3563 124.721 40.2863C124.822 40.2163 124.894 40.1263 124.94 40.0162C124.988 39.9062 125.015 39.7862 125.023 39.6561C125.031 39.5261 125.035 39.404 125.035 39.288V35.7949H126.517V39.288C126.517 39.5321 126.505 39.7461 126.478 39.9242C126.452 40.1043 126.414 40.2623 126.364 40.3963C126.314 40.5324 126.254 40.6524 126.183 40.7605C126.113 40.8665 126.031 40.9665 125.936 41.0606C125.747 41.2526 125.521 41.4067 125.253 41.5187C124.986 41.6307 124.673 41.6867 124.312 41.6867C124.207 41.6867 124.083 41.6787 123.938 41.6627C123.794 41.6467 123.647 41.6167 123.494 41.5727C123.342 41.5287 123.193 41.4667 123.043 41.3847C122.894 41.3046 122.759 41.1986 122.639 41.0686C122.518 40.9385 122.42 40.8125 122.346 40.6904C122.269 40.5684 122.211 40.4384 122.169 40.3043C122.127 40.1683 122.099 40.0182 122.083 39.8542C122.067 39.6901 122.059 39.5021 122.059 39.288V35.7949H123.541H123.545Z" fill="#939597"/>
  <path d="M134.291 39.4127C134.207 39.7568 134.072 40.0689 133.887 40.3469C133.703 40.625 133.48 40.8651 133.225 41.0612C132.968 41.2592 132.681 41.4133 132.361 41.5233C132.042 41.6333 131.707 41.6874 131.357 41.6874C130.901 41.6874 130.486 41.6033 130.11 41.4373C129.735 41.2712 129.411 41.0472 129.146 40.7691C128.879 40.491 128.672 40.1709 128.522 39.8088C128.373 39.4467 128.299 39.0705 128.299 38.6804C128.299 38.3103 128.367 37.9462 128.508 37.5901C128.646 37.234 128.847 36.9139 129.108 36.6338C129.369 36.3517 129.688 36.1236 130.066 35.9496C130.441 35.7755 130.869 35.6875 131.345 35.6875C131.821 35.6875 132.203 35.7655 132.554 35.9216C132.903 36.0776 133.201 36.2697 133.444 36.4998C133.687 36.7298 133.879 36.9799 134.02 37.25C134.16 37.5201 134.253 37.7681 134.295 37.9922H132.741C132.699 37.8822 132.64 37.7701 132.564 37.6521C132.488 37.5341 132.393 37.426 132.277 37.328C132.162 37.228 132.026 37.148 131.869 37.0819C131.713 37.0179 131.534 36.9839 131.335 36.9839C131.084 36.9839 130.863 37.0339 130.672 37.1319C130.482 37.232 130.319 37.36 130.186 37.5181C130.054 37.6781 129.951 37.8582 129.885 38.0602C129.817 38.2643 129.783 38.4664 129.783 38.6704C129.783 38.8885 129.819 39.1026 129.893 39.3066C129.966 39.5127 130.07 39.6967 130.203 39.8568C130.335 40.0188 130.5 40.1469 130.692 40.2429C130.885 40.3389 131.102 40.387 131.343 40.387C131.584 40.387 131.773 40.3449 131.94 40.2629C132.106 40.1789 132.245 40.0829 132.355 39.9728C132.466 39.8628 132.55 39.7548 132.61 39.6487C132.67 39.5427 132.713 39.4627 132.739 39.4107H134.293L134.291 39.4127Z" fill="#939597"/>
  <path d="M136.736 37.0913H135.592V35.7949H139.357V37.0913H138.22V41.5767H136.738V37.0913H136.736Z" fill="#939597"/>
  <path d="M140.934 35.7949H142.416V41.5787H140.934V35.7949Z" fill="#939597"/>
  <path d="M144.426 37.5222C144.505 37.3341 144.619 37.134 144.772 36.92C144.922 36.7059 145.115 36.5078 145.348 36.3218C145.581 36.1377 145.856 35.9837 146.171 35.8636C146.487 35.7436 146.85 35.6836 147.258 35.6836C147.701 35.6836 148.113 35.7636 148.489 35.9257C148.866 36.0877 149.189 36.3038 149.461 36.5779C149.732 36.852 149.944 37.1701 150.097 37.5362C150.248 37.9003 150.324 38.2844 150.324 38.6845C150.324 39.0846 150.248 39.4688 150.097 39.8329C149.944 40.197 149.734 40.5171 149.461 40.7912C149.189 41.0653 148.864 41.2813 148.489 41.4434C148.113 41.6054 147.699 41.6855 147.25 41.6855C146.8 41.6855 146.378 41.6014 146.003 41.4354C145.625 41.2693 145.304 41.0493 145.037 40.7752C144.77 40.5011 144.563 40.189 144.416 39.8369C144.27 39.4848 144.197 39.1247 144.197 38.7545C144.197 38.5625 144.213 38.3604 144.243 38.1524C144.276 37.9443 144.336 37.7322 144.424 37.5202L144.426 37.5222ZM145.681 38.6705C145.681 38.8946 145.717 39.1087 145.792 39.3147C145.866 39.5208 145.97 39.7028 146.109 39.8609C146.248 40.0189 146.414 40.147 146.611 40.243C146.808 40.339 147.031 40.3871 147.282 40.3871C147.533 40.3871 147.772 40.333 147.968 40.227C148.165 40.121 148.326 39.9829 148.454 39.8169C148.583 39.6508 148.679 39.4688 148.746 39.2707C148.812 39.0726 148.844 38.8806 148.844 38.6925C148.844 38.5045 148.812 38.3104 148.746 38.1103C148.681 37.9103 148.583 37.7242 148.454 37.5562C148.326 37.3861 148.163 37.2481 147.964 37.142C147.766 37.036 147.533 36.982 147.266 36.982C146.999 36.982 146.782 37.032 146.583 37.13C146.384 37.2301 146.217 37.3601 146.085 37.5202C145.952 37.6802 145.85 37.8623 145.784 38.0623C145.715 38.2624 145.681 38.4645 145.681 38.6685V38.6705Z" fill="#939597"/>
  <path d="M152.105 35.7949H153.385L155.628 39.43L155.644 39.414L155.582 35.7949H157.001V41.5787H155.714L153.501 38.0616L153.485 38.0696L153.525 41.5787H152.105V35.7949Z" fill="#939597"/>
  <path d="M64.6399 51.5042L64.3346 52.3404H62.7422L65.0716 46.5566H66.2403L68.5476 52.3404H66.9391L66.656 51.5042H64.6399ZM65.0475 50.3318H66.2644L65.668 48.3552H65.6439L65.0475 50.3318Z" fill="#939597"/>
  <path d="M72.3975 48.2459C72.3875 48.1999 72.3754 48.1438 72.3614 48.0778C72.3493 48.0138 72.3232 47.9498 72.2871 47.8898C72.2509 47.8297 72.1987 47.7797 72.1345 47.7417C72.0682 47.7017 71.9778 47.6837 71.8634 47.6837C71.7329 47.6837 71.6144 47.7257 71.51 47.8077C71.4055 47.8918 71.3533 47.9998 71.3533 48.1358C71.3533 48.2239 71.3654 48.2979 71.3935 48.3539C71.4216 48.4099 71.4758 48.4699 71.5622 48.53C71.6485 48.59 71.771 48.658 71.9276 48.734C72.0843 48.81 72.2931 48.9041 72.5562 49.0201C72.8273 49.1402 73.0522 49.2622 73.2269 49.3882C73.4016 49.5123 73.5402 49.6443 73.6426 49.7783C73.745 49.9144 73.8153 50.0564 73.8534 50.2045C73.8936 50.3525 73.9117 50.5106 73.9117 50.6766C73.9117 50.8907 73.8775 51.1028 73.8092 51.3128C73.741 51.5249 73.6285 51.7129 73.4719 51.879C73.3152 52.0451 73.1064 52.1831 72.8474 52.2891C72.5883 52.3952 72.269 52.4492 71.8855 52.4492C71.4678 52.4492 71.1224 52.3872 70.8493 52.2651C70.5762 52.1431 70.3633 51.991 70.2067 51.807C70.0501 51.6249 69.9416 51.4269 69.8814 51.2128C69.8211 50.9987 69.791 50.7987 69.791 50.6106V50.4225H71.265C71.265 50.5886 71.2871 50.7246 71.3312 50.8287C71.3754 50.9327 71.4316 51.0127 71.4959 51.0708C71.5622 51.1288 71.6284 51.1668 71.6967 51.1848C71.765 51.2028 71.8232 51.2128 71.8694 51.2128C72.0481 51.2128 72.1867 51.1548 72.2851 51.0367C72.3855 50.9187 72.4337 50.7927 72.4337 50.6586C72.4337 50.5646 72.4176 50.4846 72.3835 50.4165C72.3493 50.3485 72.2891 50.2865 72.2028 50.2285C72.1164 50.1705 71.9999 50.1105 71.8533 50.0444C71.7067 49.9804 71.522 49.9004 71.2971 49.8064C71.1927 49.7643 71.0601 49.7063 70.9015 49.6303C70.7409 49.5543 70.5862 49.4522 70.4356 49.3262C70.285 49.2002 70.1525 49.0381 70.044 48.8461C69.9336 48.654 69.8794 48.4219 69.8794 48.1498C69.8794 47.8778 69.9396 47.6377 70.0601 47.4276C70.1806 47.2156 70.3372 47.0375 70.53 46.8915C70.7228 46.7454 70.9397 46.6354 71.1806 46.5593C71.4216 46.4833 71.6646 46.4453 71.9096 46.4453C72.1967 46.4453 72.4839 46.4993 72.769 46.6054C73.0542 46.7114 73.2911 46.8774 73.4779 47.1015C73.5622 47.2055 73.6285 47.3096 73.6787 47.4096C73.7289 47.5116 73.7671 47.6097 73.7932 47.7057C73.8193 47.8017 73.8374 47.8938 73.8434 47.9838C73.8514 48.0718 73.8574 48.1578 73.8635 48.2419H72.3975V48.2459Z" fill="#939597"/>
  <path d="M77.8741 48.2459C77.8641 48.1999 77.852 48.1438 77.838 48.0778C77.8259 48.0138 77.7998 47.9498 77.7637 47.8898C77.7275 47.8297 77.6753 47.7797 77.611 47.7417C77.5448 47.7017 77.4544 47.6837 77.3399 47.6837C77.2094 47.6837 77.0909 47.7257 76.9865 47.8077C76.8821 47.8918 76.8299 47.9998 76.8299 48.1358C76.8299 48.2239 76.8419 48.2979 76.8701 48.3539C76.8962 48.4119 76.9524 48.4699 77.0387 48.53C77.1251 48.59 77.2476 48.658 77.4042 48.734C77.5608 48.81 77.7697 48.9041 78.0327 49.0201C78.3038 49.1402 78.5288 49.2622 78.7035 49.3882C78.8782 49.5123 79.0167 49.6443 79.1191 49.7783C79.2215 49.9144 79.2918 50.0564 79.33 50.2045C79.3701 50.3525 79.3882 50.5106 79.3882 50.6766C79.3882 50.8907 79.3541 51.1028 79.2858 51.3128C79.2175 51.5249 79.1051 51.7129 78.9484 51.879C78.7918 52.0451 78.583 52.1831 78.3239 52.2891C78.0649 52.3952 77.7456 52.4492 77.362 52.4492C76.9443 52.4492 76.599 52.3872 76.3258 52.2651C76.0527 52.1431 75.8399 51.991 75.6833 51.807C75.5266 51.6249 75.4182 51.4269 75.3579 51.2128C75.2977 50.9987 75.2676 50.7987 75.2676 50.6106V50.4225H76.7415C76.7415 50.5886 76.7636 50.7246 76.8078 50.8287C76.852 50.9327 76.9082 51.0127 76.9725 51.0708C77.0387 51.1288 77.105 51.1668 77.1733 51.1848C77.2415 51.2028 77.2998 51.2128 77.346 51.2128C77.5247 51.2128 77.6633 51.1548 77.7617 51.0367C77.8621 50.9187 77.9103 50.7927 77.9103 50.6586C77.9103 50.5646 77.8942 50.4846 77.86 50.4165C77.8259 50.3485 77.7657 50.2865 77.6793 50.2285C77.593 50.1705 77.4765 50.1105 77.3299 50.0444C77.1833 49.9804 76.9986 49.9004 76.7737 49.8064C76.6692 49.7643 76.5367 49.7063 76.3781 49.6303C76.2174 49.5543 76.0628 49.4522 75.9122 49.3262C75.7596 49.1982 75.629 49.0381 75.5206 48.8461C75.4102 48.654 75.3559 48.4219 75.3559 48.1498C75.3559 47.8778 75.4162 47.6377 75.5367 47.4276C75.6572 47.2156 75.8138 47.0375 76.0066 46.8915C76.1993 46.7454 76.4162 46.6354 76.6572 46.5593C76.8982 46.4833 77.1411 46.4453 77.3861 46.4453C77.6733 46.4453 77.9605 46.4993 78.2456 46.6054C78.5308 46.7114 78.7677 46.8774 78.9545 47.1015C79.0388 47.2055 79.1051 47.3096 79.1553 47.4096C79.2055 47.5116 79.2436 47.6097 79.2697 47.7057C79.2958 47.8017 79.3139 47.8938 79.3199 47.9838C79.328 48.0718 79.334 48.1578 79.34 48.2419H77.8741V48.2459Z" fill="#939597"/>
  <path d="M81.0492 48.2858C81.1276 48.0978 81.242 47.8977 81.3946 47.6836C81.5452 47.4696 81.738 47.2715 81.971 47.0855C82.2039 46.9014 82.479 46.7474 82.7943 46.6273C83.1096 46.5073 83.473 46.4473 83.8807 46.4473C84.3245 46.4473 84.7361 46.5273 85.1116 46.6893C85.4892 46.8514 85.8125 47.0675 86.0836 47.3415C86.3547 47.6156 86.5675 47.9337 86.7201 48.2998C86.8707 48.664 86.9471 49.0481 86.9471 49.4482C86.9471 49.8483 86.8707 50.2324 86.7201 50.5966C86.5675 50.9607 86.3567 51.2808 86.0836 51.5549C85.8125 51.8289 85.4872 52.045 85.1116 52.2071C84.7361 52.3691 84.3225 52.4491 83.8726 52.4491C83.4228 52.4491 83.0011 52.3651 82.6256 52.1991C82.2481 52.033 81.9268 51.8129 81.6597 51.5388C81.3926 51.2648 81.1858 50.9527 81.0392 50.6006C80.8926 50.2484 80.8203 49.8883 80.8203 49.5182C80.8203 49.3262 80.8364 49.1241 80.8665 48.916C80.8986 48.708 80.9589 48.4959 81.0472 48.2838L81.0492 48.2858ZM82.3043 49.4342C82.3043 49.6583 82.3405 49.8723 82.4148 50.0784C82.487 50.2845 82.5935 50.4665 82.732 50.6246C82.8706 50.7826 83.0373 50.9106 83.2341 51.0067C83.4309 51.1027 83.6538 51.1507 83.9048 51.1507C84.1558 51.1507 84.3947 51.0967 84.5915 50.9907C84.7883 50.8846 84.949 50.7466 85.0775 50.5805C85.206 50.4145 85.3024 50.2324 85.3687 50.0344C85.4349 49.8363 85.4671 49.6443 85.4671 49.4562C85.4671 49.2681 85.4349 49.0741 85.3687 48.874C85.3044 48.674 85.206 48.4879 85.0775 48.3198C84.949 48.1498 84.7863 48.0117 84.5875 47.9057C84.3887 47.7997 84.1558 47.7457 83.8887 47.7457C83.6216 47.7457 83.4047 47.7957 83.2059 47.8937C83.0071 47.9937 82.8405 48.1238 82.7079 48.2838C82.5754 48.4459 82.473 48.6259 82.4067 48.826C82.3384 49.0261 82.3043 49.2281 82.3043 49.4322V49.4342Z" fill="#939597"/>
  <path d="M94.4883 50.1763C94.404 50.5204 94.2694 50.8325 94.0847 51.1106C93.8999 51.3887 93.677 51.6288 93.422 51.8248C93.1649 52.0229 92.8778 52.177 92.5585 52.287C92.2392 52.397 91.9039 52.451 91.5544 52.451C91.0986 52.451 90.6829 52.367 90.3074 52.201C89.9319 52.0349 89.6086 51.8108 89.3435 51.5327C89.0764 51.2547 88.8696 50.9346 88.719 50.5725C88.5704 50.2103 88.4961 49.8342 88.4961 49.4441C88.4961 49.074 88.5644 48.7099 88.7049 48.3538C88.8435 47.9977 89.0443 47.6776 89.3054 47.3975C89.5664 47.1154 89.8857 46.8873 90.2632 46.7133C90.6387 46.5392 91.0665 46.4512 91.5424 46.4512C92.0183 46.4512 92.3999 46.5292 92.7513 46.6852C93.1007 46.8413 93.3979 47.0334 93.6409 47.2634C93.8839 47.4935 94.0766 47.7436 94.2172 48.0137C94.3578 48.2837 94.4501 48.5318 94.4923 48.7559H92.938C92.8959 48.6459 92.8376 48.5338 92.7613 48.4158C92.685 48.2977 92.5906 48.1897 92.4742 48.0917C92.3597 47.9917 92.2231 47.9116 92.0665 47.8456C91.9099 47.7816 91.7312 47.7476 91.5324 47.7476C91.2813 47.7476 91.0605 47.7976 90.8697 47.8956C90.6789 47.9957 90.5163 48.1237 90.3837 48.2817C90.2512 48.4418 90.1488 48.6218 90.0825 48.8239C90.0142 49.028 89.9801 49.23 89.9801 49.4341C89.9801 49.6522 90.0162 49.8662 90.0905 50.0703C90.1628 50.2764 90.2672 50.4604 90.3998 50.6205C90.5323 50.7825 90.697 50.9106 90.8898 51.0066C91.0825 51.1026 91.2994 51.1506 91.5404 51.1506C91.7814 51.1506 91.9701 51.1086 92.1368 51.0266C92.3035 50.9426 92.442 50.8465 92.5525 50.7365C92.6629 50.6265 92.7473 50.5184 92.8075 50.4124C92.8677 50.3064 92.9099 50.2263 92.936 50.1743H94.4903L94.4883 50.1763Z" fill="#939597"/>
  <path d="M96.2383 46.5566H97.7203V52.3404H96.2383V46.5566Z" fill="#939597"/>
  <path d="M101.195 51.5042L100.889 52.3404H99.2969L101.626 46.5566H102.795L105.102 52.3404H103.494L103.211 51.5042H101.195ZM101.602 50.3318H102.819L102.223 48.3552H102.199L101.602 50.3318Z" fill="#939597"/>
  <path d="M107.18 47.855H106.035V46.5586H109.8V47.855H108.664V52.3404H107.182V47.855H107.18Z" fill="#939597"/>
  <path d="M111.377 46.5566H112.859V52.3404H111.377V46.5566Z" fill="#939597"/>
  <path d="M114.87 48.2858C114.948 48.0978 115.062 47.8977 115.215 47.6836C115.366 47.4696 115.558 47.2715 115.791 47.0855C116.024 46.9014 116.299 46.7474 116.615 46.6273C116.93 46.5073 117.293 46.4473 117.701 46.4473C118.145 46.4473 118.556 46.5273 118.932 46.6893C119.309 46.8514 119.633 47.0675 119.904 47.3415C120.175 47.6156 120.388 47.9337 120.54 48.2998C120.691 48.664 120.767 49.0481 120.767 49.4482C120.767 49.8483 120.691 50.2324 120.54 50.5966C120.388 50.9607 120.177 51.2808 119.904 51.5549C119.633 51.8289 119.307 52.045 118.932 52.2071C118.556 52.3691 118.143 52.4491 117.693 52.4491C117.243 52.4491 116.821 52.3651 116.446 52.1991C116.068 52.033 115.747 51.8129 115.48 51.5388C115.213 51.2648 115.006 50.9527 114.86 50.6006C114.713 50.2484 114.641 49.8883 114.641 49.5182C114.641 49.3262 114.657 49.1241 114.687 48.916C114.719 48.708 114.779 48.4959 114.868 48.2838L114.87 48.2858ZM116.125 49.4342C116.125 49.6583 116.161 49.8723 116.235 50.0784C116.307 50.2845 116.414 50.4665 116.552 50.6246C116.691 50.7826 116.858 50.9106 117.054 51.0067C117.251 51.1027 117.474 51.1507 117.725 51.1507C117.976 51.1507 118.215 51.0967 118.412 50.9907C118.609 50.8846 118.769 50.7466 118.898 50.5805C119.026 50.4145 119.123 50.2324 119.189 50.0344C119.255 49.8363 119.287 49.6443 119.287 49.4562C119.287 49.2681 119.255 49.0741 119.189 48.874C119.125 48.674 119.026 48.4879 118.898 48.3198C118.769 48.1498 118.607 48.0117 118.408 47.9057C118.209 47.7997 117.976 47.7457 117.709 47.7457C117.442 47.7457 117.225 47.7957 117.026 47.8937C116.827 47.9937 116.661 48.1238 116.528 48.2838C116.396 48.4459 116.293 48.6259 116.227 48.826C116.159 49.0261 116.125 49.2281 116.125 49.4322V49.4342Z" fill="#939597"/>
  <path d="M122.547 46.5566H123.826L126.069 50.1918L126.085 50.1758L126.023 46.5566H127.443V52.3404H126.155L123.943 48.8233L123.926 48.8313L123.967 52.3404H122.547V46.5566Z" fill="#939597"/>
  <path d="M70.3589 25.6432L69.132 28.9982H62.7422L72.0919 5.79102H76.7829L86.0383 28.9982H79.5842L78.4516 25.6432H70.361H70.3589ZM71.9976 20.9397H76.8773L74.4856 13.0053H74.3912L71.9996 20.9397H71.9976Z" fill="#231F20"/>
  <path d="M113.489 15.7968C113.509 16.0068 113.521 16.2049 113.521 16.3929V17.0191C113.521 18.9637 113.176 20.7043 112.483 22.2408C111.79 23.7772 110.872 25.0836 109.728 26.16C108.583 27.2363 107.262 28.0566 105.762 28.6227C104.262 29.1869 102.703 29.469 101.087 29.469C99.3237 29.469 97.6871 29.1509 96.175 28.5127C94.6649 27.8745 93.3576 27.0022 92.2551 25.8939C91.1527 24.7855 90.2872 23.4951 89.6587 22.0207C89.0301 20.5462 88.7148 18.9737 88.7148 17.3012C88.7148 15.6287 89.0402 13.9662 89.6908 12.5037C90.3414 11.0413 91.233 9.78089 92.3656 8.72456C93.4982 7.66823 94.8215 6.84198 96.3316 6.24779C97.8417 5.65161 99.4582 5.35352 101.179 5.35352C102.565 5.35352 103.892 5.57358 105.161 6.01172C106.43 6.44986 107.579 7.04204 108.609 7.78427C109.637 8.5265 110.519 9.39477 111.254 10.3871C111.989 11.3794 112.513 12.4417 112.828 13.5701H106.155C105.693 12.7558 105.037 12.0496 104.187 11.4534C103.338 10.8572 102.284 10.5591 101.025 10.5591C100.29 10.5591 99.5446 10.6952 98.7895 10.9673C98.0345 11.2393 97.3517 11.6515 96.7433 12.2056C96.1348 12.7598 95.6368 13.46 95.2472 14.3063C94.8576 15.1526 94.6649 16.1509 94.6649 17.3012C94.6649 18.5136 94.8576 19.5599 95.2472 20.4382C95.6348 21.3165 96.1388 22.0367 96.7573 22.6029C97.3758 23.167 98.0646 23.5852 98.8197 23.8573C99.5747 24.1293 100.32 24.2654 101.055 24.2654C102.545 24.2654 103.768 23.9253 104.721 23.2471C105.675 22.5689 106.312 21.6626 106.625 20.5342H99.6691V15.7988H113.489V15.7968Z" fill="#231F20"/>
  <path d="M142.338 20.3122C142.003 21.6926 141.463 22.941 140.718 24.0594C139.973 25.1777 139.085 26.134 138.057 26.9283C137.029 27.7225 135.874 28.3387 134.595 28.7788C133.314 29.217 131.972 29.437 130.565 29.437C128.739 29.437 127.071 29.1029 125.56 28.4327C124.048 27.7645 122.759 26.8702 121.689 25.7519C120.618 24.6335 119.785 23.3471 119.187 21.8947C118.588 20.4422 118.289 18.9318 118.289 17.3633C118.289 15.8788 118.566 14.4204 119.122 12.9879C119.679 11.5555 120.482 10.2751 121.53 9.14674C122.578 8.01839 123.86 7.10411 125.37 6.40189C126.882 5.70167 128.591 5.35156 130.5 5.35156C132.41 5.35156 133.942 5.66566 135.348 6.29185C136.754 6.92005 137.944 7.69229 138.92 8.61257C139.896 9.53286 140.667 10.5372 141.234 11.6235C141.8 12.7098 142.167 13.7042 142.336 14.6024H136.103C135.934 14.1643 135.699 13.7082 135.394 13.238C135.089 12.7679 134.707 12.3337 134.246 11.9356C133.784 11.5395 133.237 11.2094 132.609 10.9473C131.978 10.6852 131.265 10.5552 130.468 10.5552C129.46 10.5552 128.575 10.7532 127.808 11.1514C127.04 11.5495 126.39 12.0656 125.856 12.7038C125.321 13.342 124.916 14.0683 124.643 14.8825C124.37 15.6988 124.233 16.513 124.233 17.3293C124.233 18.2076 124.38 19.0598 124.673 19.8861C124.966 20.7123 125.382 21.4486 125.916 22.0968C126.452 22.745 127.107 23.2631 127.884 23.6492C128.661 24.0354 129.53 24.2294 130.496 24.2294C131.462 24.2294 132.217 24.0614 132.888 23.7273C133.559 23.3932 134.115 23.007 134.557 22.5669C134.997 22.1288 135.338 21.6946 135.579 21.2645C135.82 20.8364 135.993 20.5183 136.099 20.3082H142.332L142.338 20.3122Z" fill="#231F20"/>
  <path d="M29.1055 58C45.1824 58 58.2151 45.016 58.2151 29.001C58.2151 12.986 45.1845 0 29.1055 0C13.0266 0 0 12.984 0 29.001C0 45.018 13.0306 58 29.1055 58Z" fill="#231F20"/>
  <path d="M29.105 57.1982C44.7362 57.1982 57.4073 44.5743 57.4073 28.9995C57.4073 13.4247 44.7362 0.802734 29.105 0.802734C13.4739 0.802734 0.802734 13.4287 0.802734 29.0015C0.802734 44.5743 13.4759 57.2002 29.105 57.2002" fill="white"/>
  <path d="M29.1051 49.1686C40.2863 49.1686 49.3469 40.1398 49.3469 29.0003C49.3469 17.8609 40.2843 8.83008 29.1051 8.83008C17.926 8.83008 8.85938 17.8629 8.85938 29.0003C8.85938 40.1378 17.926 49.1686 29.1051 49.1686Z" fill="#231F20"/>
  <path d="M29.1057 48.2683C39.7868 48.2683 48.4458 39.6417 48.4458 29.0004C48.4458 18.3591 39.7868 9.73438 29.1057 9.73438C18.4245 9.73438 9.76758 18.3591 9.76758 29.0004C9.76758 39.6417 18.4245 48.2683 29.1057 48.2683Z" fill="#EA0029"/>
  <path d="M42.6895 40.4666C41.6272 40.3386 40.7959 39.6104 40.5248 38.506C40.3501 37.9539 33.9141 17.4935 33.147 15.1768C32.8277 14.2165 32.8759 13.2882 33.2795 12.566C33.4201 12.3159 33.5968 12.0998 33.7996 11.9278C32.1349 11.4836 30.5987 11.2676 29.1227 11.2676C27.45 11.2676 25.9439 11.5877 24.2731 12.0858C25.0061 12.684 25.6266 13.7163 25.1728 14.9667L17.795 38.442C17.3371 39.8204 16.2628 40.4166 15.2246 40.5447C16.7829 42.2912 18.6886 43.7357 20.8112 44.78C20.3794 43.7877 20.4035 42.4833 20.6907 41.4309L21.4618 38.8581L28.7552 41.8251L36.7897 38.6461L37.7054 41.713C38.0227 42.4793 37.9303 43.7397 37.5869 44.6579C39.4745 43.7016 41.0308 42.4172 42.6875 40.4646L42.6895 40.4666ZM28.8255 38.1839L22.4679 35.6531L29.1207 14.5286L35.7796 35.3651L28.8255 38.1859V38.1839Z" fill="white"/>
  <path d="M11.0549 46.7879C11.6092 46.7879 12.059 46.3377 12.059 45.7856C12.059 45.2334 11.6072 44.7812 11.0549 44.7812C10.5027 44.7812 10.0469 45.2314 10.0469 45.7856C10.0469 46.3397 10.5007 46.7879 11.0549 46.7879Z" fill="#231F20"/>
  <path d="M46.8714 46.7879C47.4256 46.7879 47.8774 46.3377 47.8774 45.7856C47.8774 45.2334 47.4256 44.7812 46.8714 44.7812C46.3171 44.7812 45.8633 45.2314 45.8633 45.7856C45.8633 46.3397 46.3171 46.7879 46.8714 46.7879Z" fill="#231F20"/>
  <path d="M21.7078 45.8818C18.8241 44.6974 16.2658 42.8188 14.3059 40.4501L13.834 39.8819L14.573 39.934C15.0388 39.966 16.6293 39.944 17.1895 38.2494L24.5713 14.7641C25.0613 13.4117 23.8866 12.5034 23.3926 12.2674L22.6697 11.9213L23.4327 11.6792C25.4248 11.051 27.1558 10.6309 29.1217 10.6309C30.8788 10.6309 32.7142 10.925 34.7304 11.5311L35.8529 11.8672L34.7143 12.1413C34.3729 12.2234 34.0436 12.4974 33.8348 12.8716C33.5175 13.4377 33.4874 14.186 33.7504 14.9762C34.5255 17.3189 41.068 38.1154 41.1342 38.3255L41.1403 38.3455C41.3913 39.3818 42.2507 39.964 43.3271 39.8339L44.1082 39.7379L43.6142 40.3481C41.4676 42.9949 39.4454 44.5954 36.857 45.6997L36.5598 45.1416C37.0497 44.8255 37.5297 42.9429 37.11 41.9246L36.383 39.4918L28.7562 42.5088L21.8745 39.7099L21.3062 41.6045C20.9447 42.9409 21.0692 44.6534 22.019 45.3296L21.7118 45.8818H21.7078ZM15.2256 40.5461C16.7839 42.2927 18.6896 43.7371 20.8122 44.7815C20.3804 43.7891 20.4045 42.4847 20.6917 41.4324L21.4628 38.8596L28.7583 41.8265L36.7927 38.6476L37.7084 41.7145C38.0257 42.4807 37.9333 43.7431 37.5899 44.6594C39.4775 43.7031 41.0338 42.4187 42.6905 40.4661C41.6282 40.3381 40.7969 39.6099 40.5258 38.5055C40.3511 37.9533 33.9151 17.493 33.148 15.1743C32.8287 14.214 32.8769 13.2857 33.2805 12.5635C33.4211 12.3134 33.5978 12.0973 33.8006 11.9253C32.1359 11.4811 30.5997 11.2651 29.1237 11.2651C27.451 11.2651 25.9449 11.5852 24.2741 12.0833C25.0071 12.6815 25.6276 13.7138 25.1738 14.9642L17.796 38.4395C17.3381 39.8179 16.2638 40.4141 15.2256 40.5421V40.5461ZM28.8265 38.1834L22.4689 35.6526L29.1217 14.5281L35.7806 35.3645L28.8265 38.1854V38.1834ZM23.252 35.2825L28.8245 37.5012L34.9954 34.9984L29.1257 16.6327L23.252 35.2825Z" fill="#231F20"/>
  <path d="M14.0232 27.7129L13.6577 28.7153H11.75L14.5413 21.7871H15.9409L18.7041 28.7153H16.7783L16.4409 27.7129H14.0252H14.0232ZM14.5132 26.3085H15.969L15.2542 23.9398H15.226L14.5112 26.3085H14.5132Z" fill="#231F20"/>
  <path d="M32.8196 31.199C32.8257 31.2611 32.8297 31.3211 32.8297 31.3771V31.5652C32.8297 32.1453 32.7273 32.6655 32.5204 33.1236C32.3136 33.5818 32.0405 33.9719 31.6991 34.294C31.3577 34.6161 30.9621 34.8602 30.5143 35.0282C30.0665 35.1963 29.6006 35.2803 29.1187 35.2803C28.5926 35.2803 28.1046 35.1843 27.6528 34.9942C27.2009 34.8042 26.8114 34.5441 26.482 34.212C26.1527 33.8819 25.8957 33.4958 25.7069 33.0556C25.5182 32.6155 25.4258 32.1453 25.4258 31.6472C25.4258 31.149 25.5222 30.6509 25.717 30.2147C25.9117 29.7786 26.1768 29.4025 26.5162 29.0864C26.8535 28.7703 27.2491 28.5242 27.701 28.3462C28.1528 28.1681 28.6347 28.0801 29.1488 28.0801C29.5625 28.0801 29.9581 28.1461 30.3376 28.2761C30.7171 28.4082 31.0605 28.5842 31.3658 28.8043C31.673 29.0264 31.9361 29.2845 32.155 29.5805C32.3738 29.8766 32.5305 30.1927 32.6249 30.5308H30.6328C30.4942 30.2868 30.2995 30.0767 30.0464 29.8986C29.7934 29.7206 29.4781 29.6326 29.1026 29.6326C28.8837 29.6326 28.6608 29.6726 28.4359 29.7546C28.211 29.8366 28.0062 29.9587 27.8255 30.1247C27.6447 30.2908 27.4941 30.4988 27.3797 30.7529C27.2632 31.005 27.205 31.3031 27.205 31.6472C27.205 32.0093 27.2632 32.3214 27.3797 32.5835C27.4961 32.8456 27.6467 33.0616 27.8315 33.2297C28.0162 33.3977 28.2211 33.5238 28.448 33.6038C28.6729 33.6858 28.8958 33.7258 29.1147 33.7258C29.5585 33.7258 29.9239 33.6238 30.2091 33.4217C30.4942 33.2197 30.683 32.9496 30.7774 32.6115H28.701V31.197H32.8257L32.8196 31.199Z" fill="#231F20"/>
  <path d="M46.2786 26.1197C46.1782 26.5319 46.0175 26.904 45.7946 27.2381C45.5717 27.5722 45.3067 27.8583 45.0014 28.0943C44.6942 28.3324 44.3508 28.5165 43.9673 28.6465C43.5857 28.7786 43.1841 28.8426 42.7644 28.8426C42.2202 28.8426 41.7222 28.7425 41.2704 28.5425C40.8186 28.3424 40.435 28.0763 40.1137 27.7422C39.7944 27.4081 39.5454 27.024 39.3667 26.5899C39.188 26.1557 39.0996 25.7056 39.0996 25.2375C39.0996 24.7953 39.1819 24.3592 39.3486 23.9311C39.5153 23.5029 39.7543 23.1208 40.0675 22.7847C40.3808 22.4486 40.7623 22.1745 41.2141 21.9664C41.666 21.7584 42.176 21.6523 42.7463 21.6523C43.3166 21.6523 43.7745 21.7464 44.1942 21.9324C44.6139 22.1205 44.9693 22.3506 45.2605 22.6246C45.5517 22.8987 45.7826 23.1988 45.9513 23.5229C46.12 23.847 46.2304 24.1431 46.2806 24.4132H44.4211C44.3709 24.2812 44.3006 24.1471 44.2102 24.0051C44.1199 23.865 44.0054 23.735 43.8669 23.617C43.7283 23.4989 43.5656 23.4009 43.3789 23.3229C43.1901 23.2448 42.9773 23.2048 42.7403 23.2048C42.4391 23.2048 42.174 23.2648 41.9471 23.3829C41.7182 23.5009 41.5234 23.657 41.3648 23.847C41.2041 24.0371 41.0836 24.2551 41.0033 24.4972C40.921 24.7413 40.8808 24.9834 40.8808 25.2275C40.8808 25.4895 40.925 25.7436 41.0133 25.9897C41.1017 26.2358 41.2242 26.4558 41.3848 26.6499C41.5455 26.844 41.7403 26.998 41.9712 27.114C42.2021 27.2301 42.4632 27.2881 42.7504 27.2881C43.0375 27.2881 43.2644 27.2381 43.4652 27.138C43.666 27.038 43.8307 26.922 43.9632 26.7919C44.0958 26.6619 44.1962 26.5319 44.2685 26.4038C44.3408 26.2758 44.393 26.1817 44.4231 26.1177H46.2826L46.2786 26.1197Z" fill="#231F20"/>
  <path d="M9.60564 41.9927L10.1498 41.8747L10.682 42.709L6.85051 43.4172L6.46094 42.805L8.74617 39.666L9.28233 40.5083L8.93493 40.9364L9.60765 41.9927H9.60564ZM8.84858 42.1688L8.44294 41.5306L7.59753 42.5029V42.5069L7.60556 42.5149L8.84858 42.1668V42.1688Z" fill="#231F20"/>
  <path d="M5.59039 38.8312C5.5663 38.8492 5.53617 38.8692 5.50204 38.8932C5.4679 38.9172 5.43778 38.9472 5.41368 38.9832C5.38958 39.0192 5.37352 39.0612 5.36749 39.1073C5.36147 39.1533 5.37352 39.2113 5.40163 39.2753C5.43376 39.3493 5.48798 39.4054 5.56228 39.4454C5.63658 39.4834 5.71289 39.4874 5.7892 39.4534C5.8394 39.4314 5.87755 39.4054 5.90366 39.3773C5.92976 39.3473 5.94985 39.3013 5.96189 39.2373C5.97394 39.1733 5.98398 39.0873 5.988 38.9792C5.99202 38.8712 5.99402 38.7291 5.99402 38.5511C5.99402 38.367 6.01009 38.209 6.03619 38.0769C6.06431 37.9469 6.10447 37.8349 6.15668 37.7428C6.20889 37.6508 6.27315 37.5748 6.34745 37.5168C6.42376 37.4567 6.5081 37.4067 6.60449 37.3647C6.72698 37.3107 6.85751 37.2767 6.99406 37.2627C7.13262 37.2487 7.26917 37.2647 7.40372 37.3127C7.53826 37.3607 7.66879 37.4447 7.7953 37.5648C7.92181 37.6848 8.03225 37.8549 8.12664 38.0709C8.23106 38.309 8.28126 38.5211 8.27925 38.7051C8.27724 38.8912 8.24311 39.0512 8.17885 39.1853C8.11459 39.3193 8.02824 39.4314 7.9198 39.5194C7.81337 39.6074 7.70493 39.6734 7.5985 39.7215L7.49006 39.7675L7.12258 38.9292C7.21897 38.8872 7.28925 38.8412 7.33946 38.7892C7.38765 38.7371 7.41978 38.6871 7.43785 38.6351C7.45392 38.5831 7.45994 38.5371 7.45191 38.4931C7.44589 38.4491 7.43585 38.415 7.4238 38.389C7.37962 38.289 7.31134 38.223 7.21897 38.197C7.1266 38.169 7.04226 38.173 6.96394 38.207C6.90972 38.231 6.86755 38.261 6.83743 38.297C6.80731 38.333 6.78723 38.383 6.77518 38.4471C6.76313 38.5111 6.75711 38.5911 6.75711 38.6911C6.75711 38.7912 6.7571 38.9152 6.75911 39.0672C6.76112 39.1373 6.75911 39.2273 6.75911 39.3373C6.7551 39.4474 6.73702 39.5614 6.70088 39.6794C6.66473 39.7975 6.6065 39.9115 6.52416 40.0215C6.44183 40.1316 6.32135 40.2216 6.16672 40.2896C6.0121 40.3577 5.85747 40.3837 5.70686 40.3677C5.55626 40.3516 5.41368 40.3076 5.28315 40.2336C5.15062 40.1596 5.03415 40.0636 4.92973 39.9455C4.82731 39.8275 4.74498 39.6994 4.68273 39.5594C4.61044 39.3953 4.57027 39.2193 4.56023 39.0312C4.55019 38.8432 4.58634 38.6671 4.66666 38.5031C4.70482 38.4291 4.74699 38.365 4.79317 38.313C4.83936 38.259 4.88555 38.213 4.93575 38.175C4.98394 38.137 5.03415 38.103 5.08234 38.0769C5.13054 38.0509 5.17873 38.0249 5.22492 38.0009L5.59039 38.8352V38.8312Z" fill="#231F20"/>
  <path d="M4.48543 35.6346C4.45933 35.6486 4.4272 35.6646 4.39105 35.6846C4.35491 35.7026 4.32077 35.7286 4.29065 35.7606C4.26052 35.7927 4.24044 35.8327 4.22839 35.8767C4.21635 35.9227 4.22036 35.9787 4.23843 36.0487C4.26052 36.1268 4.30671 36.1908 4.37499 36.2388C4.44326 36.2868 4.51756 36.2988 4.59989 36.2768C4.65211 36.2608 4.69428 36.2408 4.7244 36.2168C4.75452 36.1908 4.78062 36.1468 4.80071 36.0867C4.82079 36.0267 4.84288 35.9407 4.86095 35.8347C4.87902 35.7286 4.90111 35.5866 4.92521 35.4105C4.95131 35.2285 4.98545 35.0724 5.03164 34.9464C5.07582 34.8203 5.13204 34.7163 5.1963 34.6323C5.26056 34.5483 5.33285 34.4822 5.41719 34.4322C5.49953 34.3842 5.5919 34.3442 5.69231 34.3162C5.82082 34.2802 5.95336 34.2642 6.09393 34.2682C6.23249 34.2722 6.36502 34.3082 6.49153 34.3722C6.61804 34.4362 6.73652 34.5383 6.84496 34.6743C6.9534 34.8103 7.03975 34.9924 7.10601 35.2205C7.17831 35.4706 7.2004 35.6866 7.17228 35.8707C7.14618 36.0547 7.08995 36.2088 7.00762 36.3328C6.92529 36.4569 6.82488 36.5569 6.7064 36.6289C6.58792 36.7009 6.47346 36.7529 6.359 36.785L6.24654 36.817L5.99352 35.9367C6.09393 35.9087 6.17224 35.8727 6.22646 35.8267C6.28269 35.7826 6.32084 35.7366 6.34494 35.6866C6.36904 35.6366 6.37908 35.5906 6.37908 35.5486C6.37908 35.5046 6.37506 35.4686 6.36703 35.4405C6.33691 35.3345 6.27867 35.2625 6.19032 35.2225C6.10196 35.1825 6.01762 35.1745 5.9373 35.1985C5.88107 35.2145 5.83488 35.2385 5.80074 35.2705C5.76661 35.3025 5.73849 35.3485 5.71841 35.4105C5.69833 35.4726 5.68227 35.5526 5.66821 35.6506C5.65415 35.7486 5.63809 35.8727 5.62001 36.0247C5.61198 36.0947 5.59993 36.1828 5.58186 36.2908C5.56379 36.3988 5.52965 36.5089 5.47744 36.6209C5.42523 36.7329 5.35294 36.839 5.25454 36.937C5.15815 37.035 5.02762 37.1071 4.86496 37.1551C4.70231 37.2011 4.54768 37.2071 4.39908 37.1711C4.25249 37.1351 4.11795 37.073 3.99746 36.981C3.87697 36.891 3.77255 36.779 3.6862 36.6489C3.59986 36.5189 3.5356 36.3788 3.49343 36.2328C3.44523 36.0607 3.42716 35.8807 3.44322 35.6926C3.45929 35.5046 3.51752 35.3345 3.61994 35.1845C3.66813 35.1164 3.71833 35.0584 3.77055 35.0124C3.82276 34.9664 3.87697 34.9264 3.92919 34.8944C3.9834 34.8624 4.03562 34.8364 4.08783 34.8163C4.14004 34.7963 4.19024 34.7783 4.24044 34.7603L4.49146 35.6366L4.48543 35.6346Z" fill="#231F20"/>
  <path d="M4.00424 33.683C3.88175 33.649 3.74921 33.591 3.60663 33.5129C3.46406 33.4349 3.3255 33.3309 3.19497 33.2009C3.06445 33.0708 2.94998 32.9128 2.85159 32.7247C2.7552 32.5386 2.69094 32.3186 2.66282 32.0685C2.63069 31.7944 2.65278 31.5363 2.72507 31.2923C2.79737 31.0482 2.90982 30.8321 3.06043 30.6461C3.21104 30.458 3.39378 30.306 3.61065 30.1859C3.82552 30.0659 4.05846 29.9919 4.30747 29.9638C4.55647 29.9358 4.79945 29.9538 5.03842 30.0219C5.27537 30.0899 5.49024 30.1979 5.679 30.346C5.86777 30.494 6.02641 30.6781 6.15493 30.8981C6.28144 31.1182 6.36176 31.3683 6.39389 31.6444C6.42602 31.9245 6.40393 32.1865 6.32762 32.4306C6.25131 32.6747 6.13685 32.8888 5.98624 33.0728C5.83564 33.2569 5.65691 33.4069 5.44807 33.523C5.23923 33.639 5.02034 33.709 4.79142 33.735C4.67093 33.749 4.54643 33.753 4.41389 33.749C4.28136 33.745 4.14682 33.723 4.00826 33.683H4.00424ZM4.62876 32.8267C4.76732 32.8107 4.89785 32.7727 5.02235 32.7127C5.14485 32.6527 5.25128 32.5747 5.33963 32.4786C5.42799 32.3826 5.49627 32.2686 5.54245 32.1425C5.58864 32.0145 5.6027 31.8724 5.58462 31.7184C5.56655 31.5563 5.51635 31.4203 5.43602 31.3063C5.3557 31.1922 5.25931 31.1022 5.14685 31.0362C5.0344 30.9682 4.91391 30.9221 4.78539 30.8961C4.65688 30.8701 4.53639 30.8641 4.41992 30.8761C4.30345 30.8881 4.18497 30.9241 4.06448 30.9782C3.944 31.0322 3.83556 31.1062 3.74118 31.1962C3.64479 31.2883 3.57049 31.3983 3.51828 31.5283C3.46607 31.6584 3.45 31.8064 3.46808 31.9705C3.48615 32.1285 3.53434 32.2646 3.60864 32.3806C3.68294 32.4966 3.77732 32.5887 3.88777 32.6607C3.99822 32.7327 4.11669 32.7807 4.24722 32.8087C4.37775 32.8367 4.50426 32.8427 4.63077 32.8287L4.62876 32.8267Z" fill="#231F20"/>
  <path d="M5.01431 25.3747C5.22517 25.4427 5.41393 25.5387 5.57859 25.6668C5.74527 25.7948 5.88383 25.9408 5.99427 26.1089C6.10472 26.2769 6.18906 26.461 6.24328 26.6631C6.2975 26.8651 6.31557 27.0752 6.30151 27.2913C6.28143 27.5733 6.21115 27.8274 6.08865 28.0515C5.96616 28.2756 5.81354 28.4656 5.6288 28.6197C5.44204 28.7717 5.2332 28.8858 5.00026 28.9618C4.76732 29.0378 4.53036 29.0678 4.28537 29.0498C4.05444 29.0338 3.83154 28.9738 3.61466 28.8717C3.39779 28.7697 3.20902 28.6317 3.04436 28.4576C2.87969 28.2836 2.75318 28.0755 2.66081 27.8354C2.56844 27.5954 2.5343 27.3273 2.55438 27.0312C2.57446 26.7491 2.64274 26.503 2.75519 26.2929C2.86765 26.0829 3.00219 25.9088 3.15681 25.7668C3.31144 25.6267 3.4761 25.5187 3.65081 25.4427C3.82551 25.3667 3.98415 25.3226 4.12673 25.3066L4.05645 26.2689C3.98616 26.2909 3.91387 26.321 3.83555 26.363C3.75724 26.405 3.68695 26.459 3.62069 26.525C3.55442 26.591 3.49618 26.6731 3.44799 26.7671C3.39979 26.8611 3.37168 26.9692 3.36365 27.0932C3.3516 27.2492 3.37369 27.3873 3.4259 27.5093C3.47811 27.6314 3.55241 27.7374 3.64478 27.8274C3.73716 27.9175 3.8456 27.9875 3.9701 28.0395C4.0946 28.0915 4.2191 28.1215 4.34561 28.1295C4.48217 28.1395 4.61671 28.1255 4.74724 28.0895C4.87977 28.0535 4.99825 27.9975 5.10468 27.9215C5.21111 27.8454 5.29947 27.7514 5.36774 27.6354C5.43602 27.5193 5.47618 27.3873 5.48823 27.2392C5.49827 27.0972 5.4822 26.9712 5.43602 26.8651C5.39184 26.7571 5.33762 26.6671 5.27336 26.595C5.2091 26.523 5.14685 26.465 5.08259 26.423C5.01833 26.381 4.97014 26.351 4.94001 26.333L5.0103 25.3707L5.01431 25.3747Z" fill="#231F20"/>
  <path d="M3.01758 24.0233L3.20634 23.123L6.74664 23.8613L6.55787 24.7616L3.01758 24.0233Z" fill="#231F20"/>
  <path d="M6.72803 21.9507L7.15977 22.3008L6.83446 23.2351L3.89258 20.6883L4.13154 20.0021L8.01924 19.8301L7.68991 20.7724L7.13768 20.7664L6.72602 21.9487L6.72803 21.9507ZM6.11957 21.4706L6.36858 20.7584L5.07937 20.7043V20.7084L5.07535 20.7184L6.12158 21.4726L6.11957 21.4706Z" fill="#231F20"/>
  <path d="M5.98177 17.7306L5.65646 18.3628L4.93555 17.9927L6.00788 15.9141L6.72879 16.2842L6.40548 16.9124L8.90156 18.1908L8.47986 19.009L5.98378 17.7306H5.98177Z" fill="#231F20"/>
  <path d="M6.56256 15.0042L7.69111 13.3477L8.36182 13.8018L7.73127 14.7281L8.19716 15.0422L8.80963 14.1439L9.48034 14.598L8.86786 15.4963L9.38194 15.8444L10.0125 14.9181L10.6832 15.3723L9.55464 17.0288L6.56055 15.0062L6.56256 15.0042Z" fill="#231F20"/>
  <path d="M8.4688 12.3102L9.27807 11.4299C9.34635 11.3559 9.42868 11.2719 9.52507 11.1758C9.62146 11.0818 9.73391 10.9938 9.86243 10.9158C9.99095 10.8377 10.1375 10.7777 10.3022 10.7337C10.4669 10.6897 10.6496 10.6817 10.8544 10.7097C11.0653 10.7357 11.2581 10.7937 11.4288 10.8838C11.6015 10.9758 11.7601 11.0878 11.9067 11.2219C12.0894 11.3879 12.24 11.57 12.3585 11.766C12.477 11.9621 12.5473 12.1702 12.5714 12.3882C12.5955 12.6083 12.5613 12.8384 12.471 13.0764C12.3806 13.3165 12.22 13.5606 11.989 13.8127L11.1336 14.7429L8.4668 12.3082L8.4688 12.3102ZM11.1617 13.5206L11.4288 13.2305C11.5452 13.1044 11.6215 12.9804 11.6577 12.8584C11.6938 12.7383 11.7019 12.6223 11.6798 12.5103C11.6577 12.4002 11.6115 12.2942 11.5412 12.1922C11.4709 12.0901 11.3886 11.9981 11.2962 11.9121C11.2199 11.842 11.1275 11.776 11.0231 11.716C10.9187 11.656 10.8042 11.614 10.6837 11.592C10.6376 11.584 10.5854 11.582 10.5291 11.584C10.4729 11.586 10.4147 11.596 10.3544 11.616C10.2942 11.636 10.2319 11.668 10.1657 11.71C10.0994 11.754 10.0311 11.812 9.96485 11.8861L9.69375 12.1802L11.1637 13.5226L11.1617 13.5206Z" fill="#231F20"/>
  <path d="M17.2071 7.05952C17.2272 7.08553 17.2453 7.10954 17.2614 7.13555C17.2774 7.15955 17.2955 7.18756 17.3136 7.21757C17.4762 7.47165 17.5786 7.72773 17.6168 7.98581C17.655 8.24389 17.6449 8.49197 17.5867 8.72804C17.5284 8.96411 17.424 9.18218 17.2754 9.38224C17.1268 9.58231 16.9461 9.74836 16.7352 9.8844C16.5043 10.0324 16.2633 10.1265 16.0123 10.1705C15.7613 10.2145 15.5163 10.2085 15.2794 10.1565C15.0424 10.1045 14.8195 10.0064 14.6147 9.86839C14.4078 9.72835 14.2351 9.5483 14.0946 9.33023C13.948 9.10416 13.8556 8.86808 13.8175 8.62201C13.7793 8.37593 13.7893 8.13786 13.8496 7.90378C13.9098 7.66971 14.0122 7.45364 14.1588 7.24758C14.3054 7.04352 14.4922 6.86946 14.7171 6.72542C14.8978 6.60938 15.0906 6.52736 15.2934 6.47934C15.4962 6.43133 15.697 6.41132 15.8938 6.42332C16.0906 6.43533 16.2794 6.47334 16.4581 6.54336C16.6368 6.61138 16.7955 6.70741 16.932 6.82745L16.0605 7.38562C15.932 7.3176 15.7874 7.27959 15.6248 7.27359C15.4641 7.26759 15.3014 7.3156 15.1368 7.42163C15.0404 7.48365 14.954 7.56368 14.8797 7.66171C14.8034 7.75974 14.7492 7.87177 14.7171 7.99381C14.685 8.11785 14.6789 8.24989 14.699 8.39394C14.7191 8.53798 14.7793 8.68403 14.8757 8.83407C14.9781 8.99212 15.0906 9.11216 15.2151 9.19419C15.3396 9.27621 15.4661 9.32823 15.5946 9.35023C15.7231 9.37224 15.8477 9.37024 15.9701 9.34223C16.0926 9.31422 16.2011 9.27021 16.2975 9.20819C16.4923 9.08415 16.6228 8.9361 16.6911 8.76805C16.7593 8.6 16.7654 8.42795 16.7111 8.25389L15.8015 8.83607L15.4019 8.21788L17.2071 7.06352V7.05952Z" fill="#231F20"/>
  <path d="M17.5352 5.2124L19.3746 4.41016L19.7 5.15039L18.6698 5.60053L18.8947 6.11268L19.8927 5.67655L20.218 6.41678L19.22 6.85291L19.469 7.41909L20.4992 6.96895L20.8245 7.70918L18.9851 8.51143L17.5332 5.2104L17.5352 5.2124Z" fill="#231F20"/>
  <path d="M20.6426 3.92892L21.4117 3.72285L23.3535 5.54742L23.3595 5.53542L22.733 3.36874L23.5865 3.13867L24.5283 6.61775L23.7551 6.82582L21.8515 5.06727L21.8434 5.07527L22.4378 7.17993L21.5844 7.41L20.6426 3.93092V3.92892Z" fill="#231F20"/>
  <path d="M25.0176 2.90581L27.0137 2.67773L27.1061 3.47998L25.9896 3.60802L26.0538 4.1642L27.1362 4.04016L27.2286 4.84241L26.1462 4.96644L26.2165 5.58064L27.333 5.4526L27.4254 6.25484L25.4293 6.48292L25.0156 2.9038L25.0176 2.90581Z" fill="#231F20"/>
  <path d="M28.3165 2.60156L29.4592 2.62557C29.6178 2.62957 29.7543 2.63557 29.8688 2.64758C29.9833 2.65958 30.0817 2.67759 30.166 2.69959C30.2504 2.7216 30.3247 2.75161 30.3869 2.78362C30.4492 2.81763 30.5094 2.85764 30.5676 2.90366C30.7142 3.02369 30.8227 3.17374 30.8929 3.3518C30.9632 3.52985 30.9954 3.71191 30.9913 3.89796C30.9893 4.002 30.9733 4.11403 30.9411 4.23207C30.909 4.35211 30.8568 4.46414 30.7845 4.57217C30.7122 4.68021 30.6178 4.77424 30.4994 4.85426C30.3829 4.93429 30.2383 4.9883 30.0676 5.01431L31.0255 6.2607L29.9692 6.23869L29.1579 5.05833H29.1479L29.1238 6.22269L28.2402 6.20468L28.3145 2.60156H28.3165ZM29.164 4.43213L29.4913 4.43813C29.6278 4.44013 29.7363 4.42413 29.8166 4.38812C29.8969 4.35211 29.9592 4.30809 29.9993 4.25608C30.0415 4.20406 30.0696 4.14804 30.0837 4.09002C30.0977 4.03201 30.1058 3.97999 30.1058 3.93398C30.1098 3.76792 30.0576 3.64389 29.9491 3.56386C29.8407 3.48184 29.6981 3.43982 29.5194 3.43582L29.182 3.42982L29.162 4.43213H29.164Z" fill="#231F20"/>
  <path d="M32.6536 5.97516L32.3724 6.45331L31.3965 6.27525L33.4769 2.99023L34.1938 3.12027L34.9569 6.92345L33.9709 6.7434L33.8926 6.19923L32.6576 5.97316L32.6536 5.97516ZM33.0351 5.30295L33.7801 5.43899L33.6375 4.1606H33.6335L33.6235 4.1586L33.0351 5.30295Z" fill="#231F20"/>
  <path d="M36.7211 3.73828L37.5967 4.03237L36.699 6.68119L37.7131 7.0233L37.4541 7.78954L35.5645 7.15334L36.7231 3.74028L36.7211 3.73828Z" fill="#231F20"/>
  <path d="M43.4191 9.50565C43.2605 9.65969 43.0858 9.77973 42.897 9.86776C42.7082 9.95579 42.5114 10.0078 42.3106 10.0278C42.1098 10.0478 41.907 10.0358 41.7022 9.9878C41.4974 9.93978 41.3026 9.85976 41.1178 9.74572C40.8768 9.59567 40.6841 9.41562 40.5415 9.20355C40.3969 8.99149 40.3005 8.76742 40.2523 8.53335C40.2041 8.29927 40.2001 8.0612 40.2403 7.82112C40.2804 7.58105 40.3668 7.35698 40.4953 7.15092C40.6178 6.95486 40.7744 6.7868 40.9652 6.64276C41.156 6.49871 41.3688 6.39668 41.5998 6.33266C41.8307 6.26864 42.0757 6.25464 42.3327 6.28465C42.5898 6.31666 42.8448 6.41069 43.0958 6.56673C43.3368 6.71678 43.5235 6.88883 43.6561 7.0869C43.7906 7.28496 43.883 7.48502 43.9352 7.68508C43.9874 7.88714 44.0075 8.0812 43.9914 8.27126C43.9754 8.46132 43.9432 8.62137 43.891 8.75341L43.0697 8.24326C43.0838 8.17123 43.0898 8.09321 43.0878 8.00518C43.0858 7.91715 43.0717 7.82913 43.0436 7.7391C43.0155 7.64907 42.9713 7.56104 42.909 7.47502C42.8468 7.38899 42.7645 7.31297 42.66 7.24895C42.5275 7.16692 42.395 7.12091 42.2604 7.1089C42.1259 7.0989 41.9974 7.1129 41.8749 7.15292C41.7524 7.19293 41.6379 7.25495 41.5355 7.34097C41.4331 7.427 41.3467 7.52303 41.2805 7.62906C41.2082 7.7451 41.158 7.86914 41.1279 8.00118C41.0977 8.13322 41.0917 8.26526 41.1098 8.3933C41.1259 8.52334 41.17 8.64538 41.2403 8.75941C41.3106 8.87345 41.409 8.97148 41.5375 9.04951C41.66 9.12553 41.7785 9.16754 41.895 9.17955C42.0114 9.18955 42.1158 9.18555 42.2102 9.16354C42.3046 9.14153 42.3849 9.11152 42.4532 9.07551C42.5195 9.0395 42.5697 9.01149 42.5998 8.99149L43.4211 9.50165L43.4191 9.50565Z" fill="#231F20"/>
  <path d="M44.9585 9.21305C45.0729 9.16104 45.2115 9.11702 45.3722 9.08301C45.5328 9.049 45.7055 9.039 45.8902 9.053C46.075 9.06701 46.2658 9.11302 46.4605 9.19104C46.6553 9.26907 46.8481 9.39511 47.0349 9.56716C47.2377 9.75522 47.3923 9.96328 47.4967 10.1974C47.6012 10.4294 47.6574 10.6655 47.6654 10.9056C47.6734 11.1457 47.6353 11.3797 47.551 11.6118C47.4666 11.8439 47.3381 12.0499 47.1674 12.234C46.9967 12.418 46.7999 12.5601 46.575 12.6641C46.3501 12.7682 46.1192 12.8242 45.8782 12.8342C45.6372 12.8442 45.3963 12.8082 45.1553 12.7241C44.9143 12.6401 44.6914 12.5021 44.4846 12.314C44.2757 12.122 44.1211 11.9099 44.0187 11.6738C43.9163 11.4397 43.8641 11.2017 43.858 10.9656C43.852 10.7275 43.8902 10.4975 43.9725 10.2754C44.0548 10.0533 44.1733 9.85725 44.332 9.6872C44.4143 9.59917 44.5067 9.51314 44.6091 9.43112C44.7115 9.34909 44.828 9.27707 44.9605 9.21705L44.9585 9.21305ZM45.0468 10.2674C44.9525 10.3694 44.8782 10.4834 44.8239 10.6095C44.7697 10.7355 44.7416 10.8636 44.7376 10.9936C44.7336 11.1256 44.7557 11.2537 44.8059 11.3797C44.8541 11.5058 44.9364 11.6218 45.0509 11.7278C45.1713 11.8379 45.2979 11.9099 45.4324 11.9439C45.5669 11.9779 45.6995 11.9839 45.83 11.9619C45.9605 11.9399 46.081 11.8959 46.1955 11.8339C46.3099 11.7698 46.4063 11.6958 46.4867 11.6098C46.567 11.5238 46.6332 11.4217 46.6895 11.3017C46.7457 11.1817 46.7798 11.0576 46.7919 10.9256C46.8039 10.7935 46.7879 10.6615 46.7437 10.5295C46.6975 10.3974 46.6132 10.2734 46.4927 10.1613C46.3762 10.0533 46.2497 9.97929 46.1172 9.94128C45.9846 9.90327 45.8521 9.89326 45.7236 9.91127C45.593 9.92927 45.4706 9.96929 45.3541 10.0333C45.2376 10.0973 45.1372 10.1754 45.0509 10.2674H45.0468Z" fill="#231F20"/>
  <path d="M49.2882 11.9453L49.7661 12.5795L48.7901 15.0543H48.8042L50.5894 13.6698L51.1216 14.3741L48.2299 16.5407L47.7479 15.9025L48.6777 13.4878L48.6677 13.4838L46.9286 14.8182L46.3965 14.114L49.2882 11.9473V11.9453Z" fill="#231F20"/>
  <path d="M51.3525 16.3619L51.0111 15.7377L51.724 15.3496L52.8486 17.4002L52.1357 17.7884L51.7963 17.1682L49.3344 18.5086L48.8926 17.7003L51.3545 16.3599L51.3525 16.3619Z" fill="#231F20"/>
  <path d="M53.3212 18.4121L53.7288 19.4764C53.785 19.6245 53.8292 19.7545 53.8613 19.8646C53.8935 19.9746 53.9136 20.0726 53.9236 20.1587C53.9336 20.2447 53.9356 20.3227 53.9276 20.3947C53.9196 20.4647 53.9055 20.5368 53.8834 20.6068C53.8272 20.7888 53.7288 20.9449 53.5903 21.0749C53.4517 21.205 53.2931 21.305 53.1204 21.371C53.022 21.409 52.9135 21.435 52.789 21.4491C52.6665 21.4651 52.54 21.4591 52.4135 21.433C52.287 21.407 52.1645 21.355 52.044 21.277C51.9255 21.199 51.8211 21.0869 51.7348 20.9389L50.9335 22.2913L50.556 21.309L51.3492 20.1166L51.3452 20.1066L50.2528 20.5228L49.9375 19.6985L53.3172 18.4121H53.3212ZM51.9396 19.8806L52.0561 20.1847C52.1043 20.3127 52.1605 20.4067 52.2247 20.4667C52.289 20.5268 52.3533 20.5668 52.4175 20.5868C52.4818 20.6048 52.544 20.6108 52.6043 20.6028C52.6645 20.5948 52.7147 20.5808 52.7569 20.5648C52.9115 20.5048 53.0079 20.4107 53.044 20.2807C53.0802 20.1506 53.0661 20.0026 53.0019 19.8346L52.8814 19.5205L51.9396 19.8786V19.8806Z" fill="#231F20"/>
  <path d="M51.8096 23.6694L51.2594 23.5894L51.0586 22.6211L54.8941 23.3113L55.0407 24.0215L51.7875 26.1502L51.5847 25.1719L52.0606 24.8958L51.8076 23.6694H51.8096ZM52.5787 23.7715L52.7313 24.5117L53.8679 23.9015V23.8975L53.8639 23.8875L52.5787 23.7735V23.7715Z" fill="#231F20"/>
  <path d="M53.2958 30.0858C53.0789 30.0398 52.8822 29.9638 52.7034 29.8537C52.5247 29.7437 52.3721 29.6117 52.2436 29.4576C52.1151 29.3036 52.0126 29.1275 51.9383 28.9315C51.864 28.7354 51.8219 28.5293 51.8158 28.3113C51.8058 28.0292 51.85 27.7691 51.9464 27.533C52.0428 27.2969 52.1753 27.0929 52.344 26.9208C52.5127 26.7488 52.7095 26.6147 52.9324 26.5147C53.1553 26.4147 53.3902 26.3607 53.6332 26.3527C53.8641 26.3447 54.093 26.3807 54.318 26.4607C54.5429 26.5387 54.7477 26.6567 54.9284 26.8148C55.1091 26.9708 55.2577 27.1649 55.3742 27.395C55.4907 27.625 55.5549 27.8871 55.563 28.1832C55.573 28.4653 55.5308 28.7174 55.4405 28.9375C55.3501 29.1575 55.2357 29.3456 55.0971 29.5016C54.9585 29.6577 54.8059 29.7817 54.6393 29.8737C54.4726 29.9658 54.32 30.0278 54.1814 30.0598L54.1513 29.0955C54.2196 29.0675 54.2878 29.0295 54.3601 28.9795C54.4324 28.9295 54.4967 28.8694 54.5569 28.7954C54.6172 28.7214 54.6654 28.6354 54.7035 28.5373C54.7417 28.4393 54.7577 28.3273 54.7537 28.2052C54.7497 28.0492 54.7136 27.9131 54.6473 27.7971C54.581 27.6811 54.4967 27.583 54.3963 27.503C54.2939 27.423 54.1794 27.365 54.0509 27.327C53.9224 27.2889 53.7958 27.2709 53.6673 27.2749C53.5308 27.2789 53.3982 27.3069 53.2717 27.355C53.1452 27.405 53.0308 27.473 52.9344 27.559C52.836 27.6451 52.7577 27.7491 52.7014 27.8711C52.6452 27.9932 52.6191 28.1292 52.6251 28.2773C52.6291 28.4193 52.6593 28.5433 52.7155 28.6454C52.7717 28.7474 52.834 28.8314 52.9042 28.8974C52.9745 28.9635 53.0448 29.0135 53.1111 29.0495C53.1794 29.0855 53.2296 29.1095 53.2637 29.1255L53.2938 30.0898L53.2958 30.0858Z" fill="#231F20"/>
  <path d="M54.5695 31.6047L54.6538 30.8984L55.4591 30.9945L55.1819 33.3152L54.3767 33.2192L54.461 32.5189L51.6758 32.1888L51.7842 31.2746L54.5695 31.6047Z" fill="#231F20"/>
  <path d="M53.9783 34.091C54.0787 34.169 54.1791 34.2711 54.2836 34.3971C54.388 34.5232 54.4743 34.6712 54.5486 34.8413C54.6209 35.0113 54.6671 35.2014 54.6872 35.4094C54.7073 35.6195 54.6832 35.8456 54.6149 36.0896C54.5406 36.3557 54.4241 36.5878 54.2635 36.7859C54.1028 36.9839 53.9181 37.142 53.7072 37.258C53.4964 37.374 53.2695 37.4481 53.0245 37.4781C52.7795 37.5081 52.5365 37.4901 52.2935 37.4221C52.0505 37.354 51.8337 37.246 51.6389 37.094C51.4441 36.9419 51.2875 36.7619 51.167 36.5538C51.0465 36.3457 50.9702 36.1156 50.936 35.8636C50.9019 35.6115 50.922 35.3514 50.9963 35.0813C51.0726 34.8092 51.1911 34.5752 51.3557 34.3771C51.5184 34.179 51.7051 34.023 51.914 33.911C52.1228 33.7969 52.3457 33.7249 52.5827 33.6969C52.8197 33.6689 53.0486 33.6849 53.2715 33.7469C53.3879 33.7789 53.5064 33.8229 53.6269 33.875C53.7474 33.927 53.8639 33.999 53.9783 34.089V34.091ZM53.0767 34.6512C52.9421 34.6132 52.8056 34.5992 52.669 34.6092C52.5325 34.6192 52.406 34.6512 52.2855 34.7072C52.167 34.7632 52.0626 34.8433 51.9702 34.9433C51.8778 35.0433 51.8136 35.1694 51.7714 35.3194C51.7272 35.4754 51.7212 35.6215 51.7533 35.7575C51.7855 35.8916 51.8397 36.0116 51.92 36.1177C51.9983 36.2217 52.0927 36.3097 52.2012 36.3817C52.3096 36.4538 52.42 36.5058 52.5325 36.5378C52.6449 36.5698 52.7674 36.5818 52.9 36.5758C53.0325 36.5698 53.159 36.5438 53.2835 36.4938C53.406 36.4458 53.5165 36.3697 53.6149 36.2697C53.7133 36.1677 53.7835 36.0376 53.8277 35.8796C53.8699 35.7255 53.8779 35.5815 53.8518 35.4474C53.8257 35.3114 53.7755 35.1914 53.6992 35.0833C53.6249 34.9773 53.5325 34.8853 53.4221 34.8112C53.3116 34.7372 53.1972 34.6832 53.0747 34.6492L53.0767 34.6512Z" fill="#231F20"/>
  <path d="M53.5147 39.146L53.0247 40.1764C52.9564 40.3204 52.8942 40.4404 52.836 40.5405C52.7777 40.6385 52.7215 40.7225 52.6673 40.7886C52.611 40.8566 52.5548 40.9106 52.4986 40.9546C52.4424 40.9986 52.3801 41.0366 52.3139 41.0686C52.1432 41.1527 51.9624 41.1907 51.7717 41.1807C51.5789 41.1707 51.4002 41.1267 51.2315 41.0466C51.1371 41.0026 51.0427 40.9406 50.9463 40.8626C50.8499 40.7846 50.7676 40.6905 50.6993 40.5805C50.6311 40.4705 50.5829 40.3464 50.5588 40.2064C50.5327 40.0663 50.5427 39.9143 50.5889 39.7502L49.0547 40.1083L49.5065 39.158L50.9202 38.904L50.9242 38.896L49.868 38.3978L50.2475 37.6016L53.5167 39.144L53.5147 39.146ZM51.4925 39.166L51.352 39.4601C51.2937 39.5842 51.2636 39.6882 51.2636 39.7762C51.2636 39.8643 51.2777 39.9383 51.3098 39.9983C51.3399 40.0583 51.3801 40.1063 51.4283 40.1424C51.4765 40.1784 51.5206 40.2064 51.5608 40.2264C51.7114 40.2964 51.846 40.3004 51.9644 40.2364C52.0829 40.1724 52.1813 40.0583 52.2576 39.8983L52.4022 39.5942L51.4925 39.164V39.166Z" fill="#231F20"/>
  <path d="M50.0607 43.2458C50.0888 43.2558 50.1209 43.2698 50.1611 43.2858C50.1992 43.3018 50.2414 43.3098 50.2856 43.3118C50.3298 43.3118 50.3719 43.3038 50.4161 43.2838C50.4583 43.2638 50.5004 43.2238 50.5406 43.1638C50.5848 43.0957 50.6049 43.0217 50.5968 42.9377C50.5888 42.8537 50.5507 42.7896 50.4804 42.7436C50.4342 42.7136 50.392 42.6956 50.3518 42.6896C50.3137 42.6836 50.2635 42.6916 50.2012 42.7156C50.141 42.7396 50.0627 42.7796 49.9703 42.8337C49.8779 42.8877 49.7554 42.9637 49.6048 43.0597C49.4482 43.1598 49.3076 43.2338 49.1831 43.2798C49.0586 43.3258 48.9422 43.3538 48.8357 43.3598C48.7293 43.3658 48.6309 43.3538 48.5405 43.3238C48.4502 43.2938 48.3598 43.2498 48.2735 43.1918C48.161 43.1177 48.0626 43.0277 47.9763 42.9197C47.8899 42.8117 47.8297 42.6896 47.7975 42.5496C47.7654 42.4115 47.7654 42.2555 47.7975 42.0854C47.8317 41.9154 47.912 41.7313 48.0445 41.5333C48.1891 41.3172 48.3397 41.1591 48.4964 41.0611C48.653 40.9631 48.8076 40.9031 48.9562 40.8851C49.1048 40.8671 49.2454 40.8791 49.3779 40.9211C49.5105 40.9631 49.6249 41.0171 49.7233 41.0811L49.8217 41.1451L49.3157 41.9094C49.2293 41.8514 49.151 41.8173 49.0807 41.8033C49.0104 41.7913 48.9502 41.7913 48.898 41.8033C48.8458 41.8173 48.8036 41.8394 48.7695 41.8674C48.7373 41.8954 48.7112 41.9234 48.6952 41.9474C48.6349 42.0394 48.6168 42.1314 48.645 42.2235C48.6731 42.3155 48.7213 42.3835 48.7915 42.4315C48.8397 42.4635 48.8879 42.4836 48.9361 42.4876C48.9823 42.4936 49.0365 42.4836 49.0968 42.4595C49.157 42.4355 49.2273 42.3955 49.3116 42.3415C49.396 42.2875 49.5004 42.2195 49.6269 42.1354C49.6852 42.0954 49.7615 42.0474 49.8558 41.9914C49.9502 41.9354 50.0567 41.8894 50.1751 41.8554C50.2936 41.8213 50.4221 41.8073 50.5607 41.8173C50.6993 41.8273 50.8378 41.8774 50.9804 41.9714C51.123 42.0654 51.2274 42.1795 51.2957 42.3135C51.3639 42.4475 51.4041 42.5916 51.4121 42.7416C51.4202 42.8917 51.4041 43.0417 51.3619 43.1938C51.3178 43.3438 51.2555 43.4839 51.1712 43.6099C51.0728 43.7579 50.9462 43.888 50.7916 44C50.639 44.1101 50.4703 44.1761 50.2896 44.1961C50.2073 44.2041 50.1289 44.2021 50.0607 44.1941C49.9904 44.1841 49.9261 44.1701 49.8659 44.1501C49.8077 44.1301 49.7534 44.1081 49.7032 44.082C49.655 44.056 49.6068 44.03 49.5627 44.004L50.0667 43.2438L50.0607 43.2458Z" fill="#231F20"/>
  <path d="M13.6754 46.9355C13.7839 46.8695 13.9164 46.8115 14.071 46.7595C14.2257 46.7074 14.3963 46.6774 14.5811 46.6714C14.7658 46.6634 14.9606 46.6874 15.1634 46.7434C15.3663 46.7995 15.5711 46.9015 15.7759 47.0515C15.9988 47.2136 16.1755 47.4057 16.3061 47.6257C16.4366 47.8458 16.5189 48.0739 16.5531 48.3099C16.5872 48.546 16.5771 48.7861 16.5189 49.0242C16.4607 49.2622 16.3563 49.4843 16.2077 49.6844C16.0591 49.8844 15.8803 50.0505 15.6695 50.1785C15.4586 50.3066 15.2337 50.3886 14.9968 50.4266C14.7598 50.4646 14.5148 50.4546 14.2658 50.3986C14.0168 50.3406 13.7799 50.2305 13.5529 50.0665C13.324 49.9004 13.1453 49.7044 13.0188 49.4823C12.8903 49.2602 12.8099 49.0322 12.7778 48.7961C12.7457 48.56 12.7557 48.3279 12.814 48.0979C12.8702 47.8678 12.9666 47.6597 13.1031 47.4737C13.1754 47.3776 13.2557 47.2816 13.3501 47.1876C13.4425 47.0936 13.5509 47.0095 13.6754 46.9355ZM13.8823 47.9738C13.7999 48.0859 13.7377 48.2079 13.6995 48.3379C13.6594 48.468 13.6453 48.598 13.6574 48.7301C13.6694 48.8621 13.7056 48.9861 13.7678 49.1062C13.8301 49.2262 13.9264 49.3322 14.0509 49.4243C14.1815 49.5203 14.316 49.5783 14.4546 49.5963C14.5931 49.6143 14.7237 49.6063 14.8502 49.5683C14.9767 49.5323 15.0932 49.4763 15.1976 49.4003C15.304 49.3242 15.3904 49.2402 15.4606 49.1462C15.5309 49.0522 15.5851 48.9421 15.6273 48.8181C15.6695 48.694 15.6876 48.564 15.6876 48.432C15.6876 48.2999 15.6554 48.1699 15.5952 48.0438C15.5349 47.9178 15.4365 47.8058 15.304 47.7077C15.1755 47.6137 15.043 47.5557 14.9064 47.5317C14.7699 47.5077 14.6373 47.5137 14.5108 47.5457C14.3843 47.5777 14.2658 47.6317 14.1594 47.7077C14.0509 47.7838 13.9586 47.8718 13.8843 47.9738H13.8823Z" fill="#231F20"/>
  <path d="M17.8639 48.5039L19.617 49.4102L19.2435 50.1284L18.2756 49.6283L17.9925 50.1724L18.9242 50.6546L18.5507 51.3728L17.619 50.8906L16.9844 52.109L16.1992 51.7029L17.8659 48.5039H17.8639Z" fill="#231F20"/>
  <path d="M21.8475 53.5047L21.5302 53.9588L20.5703 53.7048L22.8997 50.5918L23.6046 50.7779L24.0664 54.629L23.0985 54.373L23.0624 53.8248L21.8475 53.5047ZM22.2812 52.8645L23.0142 53.0586L22.972 51.7722H22.968L22.958 51.7682L22.2812 52.8645Z" fill="#231F20"/>
  <path d="M25.4622 51.2344L26.647 51.3204L27.1912 53.7372H27.2012L28.0807 51.4244L29.2695 51.5105L29.0065 55.1056L28.1591 55.0436L28.386 52.3547L28.3759 52.3447L27.408 54.9895L26.7996 54.9455L26.2273 52.1887L26.2172 52.1987L26.0505 54.8915L25.2031 54.8295L25.4662 51.2344H25.4622Z" fill="#231F20"/>
  <path d="M30.0684 51.428L32.0705 51.2539L32.1408 52.0602L31.0203 52.1582L31.0685 52.7164L32.1548 52.6223L32.2251 53.4286L31.1387 53.5226L31.193 54.1388L32.3135 54.0408L32.3838 54.847L30.3817 55.0211L30.0664 51.432L30.0684 51.428Z" fill="#231F20"/>
  <path d="M32.8008 51.1571L33.9153 50.905C34.07 50.869 34.2065 50.845 34.319 50.829C34.4314 50.813 34.5318 50.807 34.6202 50.809C34.7065 50.809 34.7848 50.821 34.8551 50.839C34.9254 50.857 34.9917 50.881 35.06 50.913C35.2327 50.993 35.3732 51.1131 35.4837 51.2691C35.5941 51.4252 35.6704 51.5932 35.7126 51.7753C35.7347 51.8773 35.7467 51.9893 35.7447 52.1134C35.7447 52.2374 35.7206 52.3594 35.6764 52.4815C35.6323 52.6035 35.562 52.7176 35.4676 52.8236C35.3732 52.9296 35.2467 53.0156 35.0881 53.0817L36.319 54.062L35.2889 54.294L34.2145 53.3438H34.2045L34.4635 54.4801L33.6001 54.6742L32.7988 51.1591L32.8008 51.1571ZM34.0659 52.7276L34.3852 52.6555C34.5198 52.6255 34.6202 52.5835 34.6905 52.5295C34.7608 52.4755 34.8089 52.4175 34.8371 52.3574C34.8652 52.2974 34.8792 52.2354 34.8792 52.1754C34.8792 52.1154 34.8732 52.0634 34.8632 52.0193C34.827 51.8573 34.7467 51.7513 34.6222 51.6972C34.4977 51.6432 34.3491 51.6372 34.1744 51.6752L33.8451 51.7493L34.068 52.7276H34.0659Z" fill="#231F20"/>
  <path d="M36.0859 50.3139L36.9575 50.0078L38.1603 53.4069L37.2888 53.713L36.0859 50.3139Z" fill="#231F20"/>
  <path d="M41.9772 50.139C42.0294 50.3531 42.0435 50.5652 42.0194 50.7712C41.9953 50.9793 41.941 51.1733 41.8547 51.3554C41.7684 51.5375 41.6539 51.7035 41.5073 51.8556C41.3607 52.0056 41.192 52.1316 40.9972 52.2317C40.7442 52.3597 40.4912 52.4317 40.2342 52.4457C39.9771 52.4597 39.7361 52.4277 39.5092 52.3477C39.2823 52.2677 39.0755 52.1496 38.8887 51.9916C38.704 51.8335 38.5534 51.6455 38.4429 51.4274C38.3385 51.2214 38.2722 51.0013 38.2481 50.7632C38.224 50.5251 38.2441 50.2931 38.3084 50.063C38.3726 49.8329 38.4851 49.6169 38.6437 49.4128C38.8024 49.2087 39.0152 49.0407 39.2783 48.9066C39.5313 48.7786 39.7763 48.7066 40.0153 48.6946C40.2542 48.6826 40.4731 48.7046 40.6739 48.7626C40.8747 48.8206 41.0515 48.9046 41.2081 49.0147C41.3627 49.1247 41.4852 49.2367 41.5716 49.3488L40.7101 49.7889C40.6559 49.7409 40.5916 49.6929 40.5153 49.6509C40.439 49.6069 40.3567 49.5748 40.2643 49.5528C40.1719 49.5308 40.0735 49.5228 39.9671 49.5308C39.8607 49.5388 39.7542 49.5708 39.6438 49.6269C39.5052 49.6969 39.3968 49.7869 39.3185 49.8969C39.2401 50.005 39.1879 50.123 39.1598 50.2491C39.1317 50.3751 39.1257 50.5031 39.1478 50.6352C39.1679 50.7672 39.208 50.8893 39.2642 51.0013C39.3265 51.1233 39.4068 51.2294 39.5072 51.3234C39.6056 51.4174 39.7161 51.4894 39.8366 51.5415C39.957 51.5935 40.0836 51.6195 40.2181 51.6175C40.3526 51.6175 40.4872 51.5815 40.6197 51.5134C40.7482 51.4474 40.8466 51.3694 40.9149 51.2754C40.9832 51.1813 41.0334 51.0893 41.0635 50.9973C41.0936 50.9053 41.1097 50.8212 41.1117 50.7452C41.1137 50.6692 41.1157 50.6132 41.1157 50.5772L41.9772 50.137V50.139Z" fill="#231F20"/>
  <path d="M43.8476 49.8227L44.0082 50.3549L43.213 50.9471L42.209 47.1939L42.7913 46.7598L46.1087 48.7884L45.3055 49.3866L44.8517 49.0745L43.8456 49.8247L43.8476 49.8227ZM43.6127 49.0865L44.2191 48.6343L43.1809 47.8681H43.1769L43.1689 47.8761L43.6127 49.0845V49.0865Z" fill="#231F20"/>
</svg>
