<svg width="44" height="34" viewBox="0 0 44 34" fill="none" xmlns="http://www.w3.org/2000/svg">
<g clip-path="url(#clip0_184_667)">
<path d="M7.49148 0.296355C7.47369 0.321695 6.97946 0.524413 6.89709 0.56918C5.7888 1.17058 5.20284 2.08281 5.40128 3.27462C5.56509 4.25949 6.49084 4.66239 7.03469 5.42258C7.57853 6.18277 7.67495 6.94888 7.71052 7.80367C7.72549 8.15758 7.65903 8.62721 7.70771 8.95832C7.71613 9.01829 7.73111 9.04447 7.7854 9.07995L11.9237 5.15567L16.3671 9.04954L20.6177 5.1278C20.6963 5.1278 21.3619 5.79339 21.4779 5.89559C22.2792 6.60003 23.0758 7.30279 23.8705 8.01146C24.1391 8.25134 24.4462 8.4625 24.6708 8.74293C24.7111 12.636 24.624 16.5357 24.7092 20.4254C24.7223 21.0175 24.5847 20.9482 24.1756 21.2912C21.9469 23.1621 19.6938 25.0212 17.4539 26.8879C17.3771 26.9512 17.35 27.0534 17.2348 27.0771L12.1895 23.2178C12.109 23.2111 11.977 23.3504 11.9199 23.4037C10.8304 24.424 9.84752 25.5694 8.80289 26.6277C8.73081 26.7004 8.37605 27.0534 8.31801 27.0703C8.28525 27.0796 8.2581 27.088 8.22721 27.0686L3.10983 23.0683L3.05928 16.665C3.03026 16.6312 2.99376 16.6303 2.95163 16.6253C2.64555 16.589 1.75723 16.6058 1.47642 16.6954C0.955038 16.8618 0.833351 17.1794 0.639589 17.5865C0.534751 17.807 0.318523 17.8213 0.144418 17.6498C0.14629 17.4108 0.037708 17.1743 0.0171149 16.9412C-0.130781 15.2688 0.733194 13.511 2.80093 13.4147C2.92823 13.4088 3.05179 13.5212 3.08643 13.3176C3.01622 11.7203 3.18658 10.0505 3.09017 8.46166C3.07332 8.1787 3.01248 7.78171 2.92823 7.51058C2.68392 6.72673 1.8602 6.0924 1.69733 5.30095C1.14693 2.63521 4.59721 0.804839 6.93266 0.0522494C6.98788 0.0345115 7.09834 0.00241456 7.15076 -0.000119414C7.28274 -0.00687667 7.5776 0.172191 7.49148 0.296355ZM10.5243 9.53184C10.2145 9.25817 9.90275 8.98535 9.59385 8.71168C9.51896 8.6458 9.48059 8.52585 9.34018 8.53937C9.19977 8.55288 8.38447 9.41274 8.22721 9.56225C8.08868 9.69402 7.75732 9.87984 7.71613 10.0614L7.73298 21.2295L7.83033 21.3613C8.51084 21.8799 9.19041 22.4027 9.86905 22.9239C10.001 23.0252 10.6628 23.5996 10.7611 23.5912C10.9099 23.5785 11.6569 22.668 11.846 22.5413C11.9667 22.3478 11.8778 22.1341 11.8741 21.9382C11.816 18.4185 11.8151 14.8084 11.8741 11.2887C11.8778 11.0488 11.9911 10.896 11.8001 10.6721C11.5025 10.3233 10.8959 9.85957 10.5252 9.53184H10.5243ZM19.0105 9.33757C18.8757 9.21509 18.7138 9.09431 18.579 8.97183C18.4788 8.88061 18.1784 8.50305 18.0389 8.53599L16.603 9.82156L16.5337 9.92376L16.5262 21.1138C16.544 21.2481 16.7219 21.3773 16.8305 21.4702C17.8161 22.314 18.9497 23.0573 19.9176 23.9257L20.0664 23.9822L20.1169 23.8311L20.1151 10.4669C20.1113 10.2811 19.941 10.205 19.8258 10.0969C19.5553 9.84436 19.2838 9.5859 19.0105 9.33757Z" fill="white"/>
<path d="M35.275 6.09086L35.3208 6.15927C35.2956 6.2809 35.3499 6.40338 35.3527 6.51487C35.3695 7.21932 35.3761 7.9491 35.3527 8.65777C35.3499 8.73295 35.2619 9.08855 35.3676 9.10966L39.8701 4.883L39.9608 4.91002L43.9344 8.21179C43.9728 8.28528 43.9887 8.53783 43.9896 8.62905C44.0467 13.1057 43.867 17.5985 43.9896 22.0743C43.9934 22.1976 44.0083 22.4029 43.9512 22.5085L37.6638 26.7976C37.6422 26.8078 37.6235 26.8036 37.6011 26.7976C37.5365 26.7816 37.1302 26.3356 37.0245 26.2461C36.7128 25.98 36.2166 25.6489 35.8282 25.4867C35.7365 25.4479 35.436 25.3262 35.3639 25.3795L35.3368 32.1333L35.2581 32.1485C34.5907 31.673 33.9954 31.1088 33.3608 30.5944C33.1548 30.4854 33.0135 30.7312 32.888 30.8292C32.1963 31.3706 31.5242 31.9424 30.8503 32.5025C30.3298 32.9349 29.7111 33.5456 29.1626 33.9156C29.1326 33.9358 28.9866 34.0178 28.9651 33.9975L28.9501 25.2443C28.8836 25.1218 28.4849 25.2756 28.3585 25.3144C27.2858 25.643 26.3198 26.3027 25.5438 27.0282C25.4549 27.1119 25.3444 27.3619 25.1656 27.2892C24.9466 27.1997 24.9672 27.0426 24.9822 26.8509C25.1469 24.8085 26.5061 23.0119 28.5495 22.1672C28.7301 22.0921 28.936 22.1123 28.966 21.8843L28.937 15.687C28.907 15.6448 28.82 15.6439 28.7685 15.6406C27.8802 15.5747 26.9207 15.7909 26.4864 16.5469C26.4265 16.6516 26.3348 16.9532 26.2814 17.0064C26.2196 17.0672 25.892 17.0613 25.819 16.9861C25.7291 16.894 25.6393 16.4016 25.6205 16.2597C25.4577 14.9944 25.7329 13.7156 27.0593 13.0584C27.6499 12.7662 28.2649 12.6876 28.9332 12.6775C28.9903 12.5331 28.936 12.4173 28.9332 12.2822C28.9257 11.8252 28.9295 11.3649 28.9332 10.9079C28.937 10.451 29.0428 9.72373 28.9576 9.2693C28.9351 9.14598 28.8602 9.08348 28.7676 9.00155C28.4493 8.71943 28.043 8.47532 27.7267 8.18476C27.6902 8.17463 27.6499 8.17294 27.6125 8.17885C27.4655 8.20166 26.873 8.88752 26.6923 8.99732C26.6305 9.01422 26.5987 9.00408 26.5454 8.97621C26.522 8.96354 26.1784 8.68058 26.1653 8.6603C26.1485 8.63496 26.1279 8.61807 26.141 8.58344L30.195 4.88468L33.5639 7.66445C33.591 8.58429 33.606 9.52017 33.5882 10.4442C33.5863 10.565 33.5321 10.6596 33.5873 10.7863L33.6959 10.761L34.6216 9.86732V6.16265C34.6216 6.15336 34.6619 6.12126 34.6516 6.09423H35.275V6.09086ZM37.8922 8.51671C37.7817 8.42549 37.3802 8.05131 37.2791 8.03864C37.1246 8.01921 36.9908 8.26332 36.8906 8.35876C36.4656 8.76504 35.9452 9.17977 35.5474 9.60294C35.4772 9.67727 35.3311 9.83016 35.3199 9.92138C35.3124 9.98642 35.3471 10.0363 35.3442 10.0836C35.3377 10.1942 35.3162 10.293 35.319 10.4138C35.3836 14.023 35.407 17.6948 35.3517 21.3074C35.3499 21.4493 35.2488 21.6359 35.4397 21.7196C36.6004 21.8378 37.9072 22.2492 38.8011 22.9401C38.949 23.0541 39.0959 23.2391 39.242 23.3379C39.3384 23.403 39.3824 23.397 39.3964 23.283L39.3945 9.918C39.3599 9.61223 39.0079 9.47455 38.7861 9.28704C38.4847 9.03364 38.1964 8.76673 37.8922 8.51587V8.51671ZM34.6207 30.6907V10.6588C34.6207 10.6098 34.5318 10.6148 34.4821 10.6436C34.4045 10.6892 34.3511 10.7939 34.2874 10.8522C34.0572 11.0634 33.8016 11.261 33.6004 11.4941L33.5873 29.8114C33.592 29.8798 33.6154 29.9372 33.6622 29.9913C33.7717 30.118 34.0946 30.33 34.2425 30.4559C34.3155 30.5184 34.4775 30.7219 34.5505 30.7278L34.6216 30.6898L34.6207 30.6907Z" fill="white"/>
</g>
<defs>
<clipPath id="clip0_184_667">
<rect width="44" height="34" fill="white"/>
</clipPath>
</defs>
</svg>
