<svg width="1000" height="992" viewBox="0 0 1000 992" fill="none" xmlns="http://www.w3.org/2000/svg">
<path d="M349.808 652.386C338.479 662.058 331.264 667.519 314.924 667.519H314.235C291.742 667.519 277.816 650.055 277.816 633.886C277.816 615.342 294.222 600.252 314.366 600.252C330.595 600.402 339.188 609.103 343.314 613.312L343.962 613.96L362.914 595.027C360.801 592.911 344.631 573.634 314.556 573.634C279.928 573.634 251.176 599.928 251.024 633.756C251.024 666.591 278.635 694.202 314.234 694.353C341.024 694.353 354.582 683.408 367.165 672.636L349.808 652.386Z" fill="white"/>
<path d="M240.598 655.193C240.598 686.388 215.621 691.288 199.991 691.288H133.328V576.613H199.926C220.349 576.613 236.669 588.206 236.669 609.945C236.669 620.695 229.092 626.632 223.328 629.568C232.826 634.317 240.598 641.333 240.598 655.193ZM157.701 598.136V619.832C157.701 619.832 192.694 619.832 197.012 619.832C203.51 619.832 210.634 617.133 210.634 609.059C210.634 600.986 205.086 598.136 196.105 598.136C190.989 598.136 157.701 598.136 157.701 598.136ZM214.693 655.193C214.693 644.183 205.518 641.333 196.602 641.333C188.593 641.333 157.701 641.333 157.701 641.333V668.728C157.701 668.728 190.276 668.728 197.53 668.728C204.784 668.728 214.693 666.203 214.693 655.193Z" fill="white"/>
<path d="M4.46875 576.613H31.3672L86.7404 650.789V576.613H111.955V691.288H85.0565L29.6617 616.961V691.288H4.46875V576.613Z" fill="white"/>
<path d="M636.763 667.174V691.309H539.294V576.634H635.36V599.626H563.709V619.832H625.062V642.801H563.709V667.088L636.763 667.174Z" fill="white"/>
<path d="M410.492 576.613H437.392L492.763 650.789V576.613H517.978V691.288H491.077L435.687 616.961V691.288H410.492V576.613Z" fill="white"/>
<path d="M781.328 576.634L760.258 651.371L738.564 576.634H712.464L690.791 651.371L669.696 576.634H645.865L677.318 691.309H702.966L725.524 619.076L748.063 691.309H773.731L805.184 576.634H781.328Z" fill="white"/>
<path d="M892.014 626.654C872.735 618.472 838.434 624.689 838.67 609.016C838.757 602.95 847.61 597.726 861.793 597.618C877.746 597.489 897.95 605.973 897.95 605.973L910.794 585.572C910.794 585.572 884.673 573.612 862.225 573.612C827.985 573.612 811.836 588.702 811.836 607.527C811.836 626.848 822.652 634.512 828.523 637.362C847.565 646.622 868.891 644.097 880.402 649.839C892.984 656.121 887.999 671.146 862.225 669.031C843.269 667.477 832.065 663.698 818.421 655.646L804.39 675.335C830.923 691.72 856.5 694.31 862.246 694.353C882.279 694.461 914.768 689.151 914.27 656.208C914.054 642.737 907.534 633.238 892.014 626.654Z" fill="white"/>
<path d="M1000 950.637H878.961V984.235H1000V950.637Z" fill="white"/>
<path d="M4.46875 723.293H65.6805L191.676 892.081V723.293H249.053V984.236H187.853L61.8451 815.153V984.236H4.46875V723.293Z" fill="white"/>
<path d="M860.141 723.293L812.151 893.406L762.777 723.293H703.442L654.067 893.406L606.078 723.293H551.85L623.421 984.236H681.829L733.104 819.918L784.39 984.236H842.798L914.37 723.293H860.141Z" fill="white"/>
<path d="M417.153 775.512C460.323 775.512 495.456 810.634 495.456 853.815C495.456 896.994 460.323 932.119 417.153 932.119C373.972 932.119 338.85 896.994 338.85 853.815C338.85 810.634 373.972 775.512 417.153 775.512ZM417.153 716.467C341.299 716.467 279.802 777.969 279.802 853.815C279.802 929.66 341.299 991.163 417.153 991.163C492.995 991.163 554.494 929.66 554.494 853.815C554.494 777.969 492.995 716.467 417.153 716.467Z" fill="white"/>
<path d="M652.781 130.037L520.504 432.193L482.754 169.599C477.921 133.964 538.624 111.917 538.624 111.917C533.037 99.5356 513.861 99.8364 513.861 99.8364H472.788C466.295 35.2088 524.883 -11.7535 588.154 2.5923C650.366 16.4833 673.016 84.1334 652.781 130.037Z" fill="white"/>
<path d="M407.1 530.042L149.189 358.2C83.503 314.411 18.5727 359.106 4.83202 405.163C-15.4028 473.264 30.0482 530.042 101.321 530.042H407.1Z" fill="white"/>
<path d="M440.912 104.064C450.425 37.3215 390.628 -12.0561 326.001 2.59045C263.787 16.4832 241.136 84.1316 261.371 130.037L393.649 432.191L440.912 103.913V104.064Z" fill="white"/>
<path d="M383.08 481.871L256.088 192.4C226.339 125.355 147.667 117.051 104.178 156.31C73.5258 184.096 49.8174 259.595 118.221 305.349L383.08 481.871Z" fill="white"/>
<path d="M812.845 530.042C884.269 530.042 929.57 473.266 909.335 405.165C895.595 358.958 830.662 314.261 764.977 358.202L507.066 530.042H812.845Z" fill="white"/>
<path d="M795.93 305.349C864.333 259.595 840.627 184.096 809.973 156.31C766.484 117.051 687.813 125.355 658.065 192.4L531.073 481.871L795.93 305.349Z" fill="white"/>
</svg>
