<svg width="135" height="56" viewBox="0 0 135 56" fill="none" xmlns="http://www.w3.org/2000/svg">
<path d="M27.3398 19.5225C28.1847 19.5261 28.9935 19.8635 29.5908 20.4609C30.1881 21.0584 30.5259 21.8671 30.5293 22.7119C30.5253 23.5566 30.1873 24.3658 29.5898 24.9629C28.9924 25.5598 28.1843 25.897 27.3398 25.9004C26.4951 25.8969 25.6863 25.5591 25.0889 24.9619C24.4914 24.3646 24.1541 23.5558 24.1504 22.7109C24.1541 21.8661 24.4914 21.0572 25.0889 20.46C25.6863 19.8628 26.4951 19.5259 27.3398 19.5225Z" fill="white"/>
<path fill-rule="evenodd" clip-rule="evenodd" d="M28 0C43.478 0 56 12.522 56 28C56 43.478 43.478 56 28 56C12.522 56 0 43.478 0 28C0 12.522 12.522 0 28 0ZM21.3096 11.2002C13.6498 11.2004 7.11557 17.4613 7.30957 25.1611C7.42762 30.878 11.122 35.1561 16.2549 36.7891V44.7998H28.8555V38.1113H30.4502C32.51 38.1112 34.1052 36.5562 34.1055 34.6504V28.8936L37.2158 28.2725C37.9158 28.1565 38.266 27.3779 37.916 26.7939L29.75 11.2002H21.3096ZM43.9834 26.7939C44.2943 27.3779 43.9441 28.1174 43.2832 28.2725L40.1719 28.8936V34.6504C40.1717 36.5562 38.5765 38.1113 36.5156 38.1113H34.9219V44.7998H40.0547V38.1113H41.6504C43.7111 38.1111 45.3054 36.5941 45.3057 34.6504V28.8936L48.416 28.2725C49.076 28.1555 49.4271 27.3779 49.0771 26.7939L40.9111 11.2002H35.8164L43.9834 26.7939Z" fill="white"/>
<path d="M124.639 10.9277C127.244 10.9277 130.161 11.7057 132.261 12.5996V18.9395C130.239 17.7335 127.594 16.7607 124.639 16.7607C122.111 16.7608 120.633 17.8109 120.633 19.5605C120.633 22.0105 123.083 23.2937 126.155 24.8887C129.228 26.4837 134.554 29.128 134.517 35.4277C134.517 41.4557 129.967 45.1895 122.811 45.1895C119.622 45.1893 115.928 43.7499 114.217 42.5439V35.8174C116.083 37.2943 118.883 39.122 122.889 39.1221C125.767 39.1221 127.478 37.9937 127.478 36.0107C127.477 33.6769 125.922 32.7443 121.839 30.5674C117.717 28.3894 113.945 25.7051 113.944 20.1055C113.944 15.3225 117.25 10.9279 124.639 10.9277Z" fill="white"/>
<path fill-rule="evenodd" clip-rule="evenodd" d="M71.4775 11.2002C79.3335 11.2002 84.0009 15.4779 83.9609 22.6328C83.9609 29.7108 78.8279 34.1064 70.5449 34.1064H69.2217V44.7998H62.6113V11.2002H71.4775ZM69.2217 28.4268H71.2051C75.25 28.4267 77.5449 26.2886 77.5449 22.5166C77.5447 19.0548 75.0558 16.7998 71.167 16.7998H69.2217V28.4268Z" fill="white"/>
<path fill-rule="evenodd" clip-rule="evenodd" d="M98.2725 11.2002C104.573 11.2004 108.461 14.5051 108.461 19.7939C108.461 22.8668 107.373 25.1608 105.117 26.7168C108.539 27.7668 110.678 30.7614 110.639 34.6113C110.639 39.5112 106.906 44.7997 98.7002 44.7998H88.0059V11.2002H98.2725ZM94.6172 39.1602H98.1953C102.161 39.1601 104.145 37.6815 104.145 34.7656C104.144 32.043 102.161 30.4103 98.8174 30.4102H94.6172V39.1602ZM97.7666 16.917H94.6172V25.1611H97.417C100.217 25.1611 102.045 23.528 102.045 21C102.045 18.472 100.373 16.877 97.7666 16.877V16.917Z" fill="white"/>
</svg>
