<svg width="499" height="201" viewBox="0 0 499 201" fill="none" xmlns="http://www.w3.org/2000/svg">
<path d="M350.847 103.45C350.632 104.47 350.751 105.826 350.136 106.447C348.202 108.377 345.988 110.027 343.87 111.773C342.255 113.107 340.777 112.82 339.434 110.912C334.175 115.448 328.955 120.016 323.656 124.481C322.353 125.581 320.883 126.602 319.316 127.247C317.702 127.909 316.319 126.721 316.679 124.983C317.054 123.174 317.877 121.451 318.557 119.713C319.764 116.628 321.051 113.575 322.21 110.481C322.489 109.74 322.417 108.863 322.545 107.699C321.474 107.946 320.715 107.938 320.171 108.281C315.999 110.88 311.891 113.583 307.711 116.166C306.64 116.827 305.241 117.784 304.218 117.569C301.421 116.979 300.246 118.645 298.983 120.455C296.185 124.473 293.372 128.475 290.606 132.509C289.08 134.733 288.52 135.076 285.699 134.654C286.994 132.406 287.953 130.181 289.392 128.324C295.658 120.216 302.092 112.227 308.406 104.159C311.419 100.317 314.305 96.3703 316.894 92.0573C305.553 100.46 294.211 108.855 282.925 117.21C280.64 125.191 278.282 133.322 276.004 141.486C275.54 143.136 275.524 144.914 275.069 146.565C274.837 147.386 274.086 148.677 273.542 148.685C271.951 148.717 271.32 147.441 271.648 145.983C272.375 142.762 273.206 139.565 274.062 136.384C275.332 131.648 276.675 126.929 277.938 122.185C278.074 121.667 277.906 121.077 277.874 120.383C273.182 122.312 268.69 124.234 264.135 125.996C261.593 126.976 258.388 127.064 256.502 128.706C254.591 130.373 253.936 133.458 252.745 135.929C249.86 141.917 247.15 147.992 244.057 153.875C240.053 161.513 235.769 169.007 231.556 176.533C228.735 181.571 225.834 186.578 222.924 191.569C221.326 194.311 219.647 197.014 217.977 199.716C217.01 201.279 215.875 201.566 214.244 199.828C225.458 175.696 239.413 152.974 251.538 128.818C250.203 129.408 248.725 129.799 247.55 130.62C244.009 133.123 240.644 135.897 237.087 138.369C235.209 139.676 233.139 140.832 230.989 141.622C226.481 143.288 222.732 140.258 223.412 135.451C223.795 132.772 224.827 130.189 225.682 127.16C222.932 125.23 220.039 123.197 216.714 120.862C214.308 122.584 211.695 124.337 209.225 126.259C204.541 129.902 199.993 133.705 195.286 137.309C193.463 138.704 191.481 139.995 189.379 140.88C186.078 142.267 183.073 140.059 183.464 136.543C183.736 134.152 184.272 131.696 185.207 129.48C187.445 124.17 189.994 118.988 192.384 113.742C192.536 113.407 192.4 112.945 192.4 112.028C188.132 114.555 184.839 117.696 181.674 120.949C174.425 128.411 167.295 135.977 160.03 143.423C158.631 144.85 156.961 146.118 155.21 147.075C152.86 148.358 150.942 147.083 151.55 144.508C152.261 141.462 153.292 138.385 154.803 135.666C158.367 129.225 162.308 122.998 166.064 116.66C166.616 115.735 166.999 114.707 166.935 113.383C163.099 116.955 159.246 120.519 155.418 124.106C146.346 132.613 137.386 141.231 128.179 149.594C124.558 152.887 120.434 155.629 116.502 158.571C115.83 159.073 114.983 159.48 114.16 159.647C111.906 160.094 110.395 158.858 110.651 156.562C110.851 154.744 111.578 152.982 112.114 151.013C111.186 151.013 110.219 151.109 109.284 150.997C106.527 150.654 105.44 149.299 106.031 146.588C106.479 144.492 106.99 142.299 108.013 140.45C111.642 133.88 115.518 127.439 119.283 120.941C121.801 116.588 124.302 112.227 126.916 107.691C125.517 107.787 124.502 107.859 123.048 107.962C123.359 107.021 123.399 106.431 123.711 106.049C125.341 104.032 127.084 102.102 128.706 100.077C130.057 98.4033 131.432 97.048 134.309 98.6743C133.006 101.536 131.927 104.454 130.417 107.133C126.724 113.686 122.688 120.048 119.051 126.626C115.566 132.924 112.401 139.389 109.132 145.807C108.884 146.285 108.94 146.923 108.805 147.792C112.13 148.31 114.439 146.804 116.166 144.468C118.476 141.343 120.498 138.01 122.688 134.797C130.641 123.094 139.528 112.124 149.064 101.688C150.998 99.5673 153.404 97.8691 155.65 96.0355C156.305 95.5013 157.096 94.9831 157.896 94.8157C158.791 94.6323 160.11 94.5207 160.613 95.023C161.149 95.5571 161.325 96.9922 160.997 97.7495C160.23 99.5354 159.071 101.154 158.072 102.844C157.728 102.772 157.376 102.708 157.033 102.637C156.977 101.401 156.913 100.157 156.833 98.5627C151.661 102.142 148.017 106.974 144.1 111.454C140.104 116.022 136.467 120.917 132.823 125.78C129.266 130.516 125.198 135.044 122.64 140.282C120.018 145.64 115.462 149.849 113.632 156.06C115.966 155.972 117.445 154.784 118.779 153.596C125.461 147.633 132.087 141.606 138.689 135.555C144.012 130.676 149.264 125.709 154.563 120.798C163.363 112.642 171.947 104.295 179.284 94.7519C180.739 92.8545 181.754 90.104 185.127 89.825C185.127 90.8136 185.399 91.7304 185.079 92.3363C183.728 94.8875 182.369 97.4625 180.715 99.8303C172.794 111.207 165.457 122.934 158.767 135.076C157.472 137.42 155.57 139.437 155.69 143.104C158.607 140.298 161.149 137.994 163.523 135.523C170.021 128.77 176.343 121.85 182.945 115.201C185.367 112.762 188.236 110.681 191.153 108.831C192.288 108.114 194.406 107.906 195.565 108.488C197.132 109.278 196.78 111.167 196.093 112.746C193.719 118.151 191.425 123.588 189.011 128.977C187.413 132.557 186.933 134.343 187.077 137.675C189.195 138.249 190.626 136.822 192.041 135.738C196.748 132.134 201.36 128.395 206.02 124.736C208.737 122.6 211.487 120.495 214.476 118.191C214.444 117.752 214.564 116.995 214.316 116.373C209.904 105.275 213.933 96.2986 221.693 88.5335C225.498 84.7306 233.491 80.1306 240.196 79.8515C241.252 81.0713 240.788 82.0678 239.573 82.6498C238.014 83.3913 236.36 83.9493 234.729 84.5154C228.847 86.5722 223.692 89.7134 220.239 94.9991C217.09 99.8144 215.211 105.076 216.186 110.976C216.41 112.347 216.85 113.678 217.265 115.353C220.982 113.431 224.339 111.837 227.544 109.979C229.302 108.959 231.109 108.775 232.268 110.171C233.131 111.207 233.507 113.128 233.267 114.508C232.699 117.864 231.644 121.133 230.749 124.593C236.048 127.566 241.771 126.442 247.318 126.171C248.669 126.107 249.948 124.505 251.25 123.596C255.295 120.758 258.308 117.386 260.642 112.714C267.747 98.5229 275.7 84.7545 283.317 70.8188C287.681 62.8384 292.005 54.8421 296.377 46.8697C301.796 36.976 307.271 27.1141 312.666 17.2124C314.009 14.741 314.888 12.2775 315.224 9.25596C315.632 5.62852 318.397 2.37578 321.722 0.0239258C323.776 1.6184 323.217 3.29261 322.401 4.82331C316.719 15.5302 310.996 26.2212 305.241 36.8883C303.075 40.8984 300.781 44.8447 298.543 48.815C298.767 48.9983 298.991 49.1817 299.215 49.3731C301.005 47.4597 302.803 45.5543 304.578 43.625C315.472 31.7859 327.021 20.8239 341.936 13.9676C353.125 8.82545 361.55 17.1008 360.702 26.6358C359.999 34.4886 356.874 41.3528 353.309 48.0895C346.635 60.7018 337.731 71.6639 327.613 81.6772C326.478 82.7933 325.423 83.9972 324.376 85.201C324.04 85.5916 323.52 86.2533 323.648 86.5483C324.991 89.6655 322.441 91.4274 321.059 93.3408C317.342 98.4989 313.274 103.41 309.381 108.448C308.43 109.684 307.639 111.047 307.127 112.793C310.468 110.737 313.793 108.664 317.158 106.639C318.261 105.977 319.38 105.204 320.603 104.893C324.096 103.992 326.342 106.184 325.391 109.724C324.495 113.057 323.177 116.277 322.01 119.53C321.738 120.28 321.338 120.981 321.634 122.273C324.663 119.729 327.733 117.234 330.706 114.627C335.27 110.625 339.714 106.495 344.309 102.533C345.788 101.257 347.267 99.5912 349.896 100.357C350.224 101.329 350.592 102.445 350.959 103.561L350.855 103.474L350.847 103.45ZM281.511 113.989C286.994 110.067 292.229 106.471 297.296 102.645C303.403 98.0365 309.525 93.4205 315.344 88.4617C322.577 82.299 329.307 75.6261 335.461 68.3155C342.111 60.4148 348.106 52.1315 352.518 42.8197C354.98 37.6297 357.345 32.2723 357.577 26.3727C357.913 17.906 352.166 13.6248 343.966 16.2717C343.142 16.5348 342.311 16.8776 341.584 17.324C336.796 20.2898 331.777 22.9685 327.309 26.3567C317.949 33.4602 309.821 41.887 302.204 50.832C295.066 59.203 288.193 67.7255 283.157 77.5953C278.889 85.9584 274.437 94.2178 270.009 102.493C267.859 106.503 265.589 110.45 263.008 115.09C269.442 112.698 275.077 108.991 281.519 113.981L281.511 113.989ZM228.671 128.459C228.12 130.779 227.296 133.179 227.025 135.642C226.721 138.361 228.152 139.509 230.509 138.401C234.729 136.424 238.318 133.498 241.787 130.197C237.455 129.623 233.499 129.097 228.679 128.459H228.671ZM277.498 115.982C277.41 115.632 277.331 115.281 277.243 114.93C275.444 115.042 273.486 114.723 271.888 115.345C268.131 116.804 264.502 118.613 260.938 120.503C259.994 121.005 259.483 122.297 258.772 123.229C258.995 123.484 259.219 123.74 259.443 123.995C265.877 122.257 271.935 119.674 277.49 115.982H277.498ZM230.022 113.431C229.774 113.104 229.526 112.785 229.278 112.459C226.137 114.34 223.004 116.214 219.639 118.231C221.749 121.069 224.203 122.336 226.921 123.261C229.702 120.351 228.847 116.596 230.03 113.431H230.022Z" fill="#00BDF2"/>
<path d="M142.294 5.54076C144.292 7.69331 142.997 9.08848 142.19 10.5713C137.698 18.7989 132.863 26.8749 128.85 35.3256C123.095 47.4516 117.868 59.8248 112.577 72.1581C106.95 85.2806 102.634 98.8815 98.6058 112.554C96.168 120.822 94.1139 129.209 92.1237 137.595C91.3564 140.84 91.2605 144.252 90.8529 147.585C91.1886 147.744 91.5243 147.904 91.86 148.071C93.7622 146.062 95.9522 144.26 97.5028 142.012C103.425 133.474 109.156 124.8 114.911 116.15C115.782 114.842 116.342 113.335 117.189 112.012C118.02 110.713 119.059 109.668 120.969 111.709C119.683 114.109 118.548 116.74 116.973 119.084C111.098 127.829 105.144 136.527 99.0694 145.137C97.5827 147.242 95.6085 149.028 93.7063 150.79C91.6522 152.687 88.6949 151.651 88.0954 148.876C87.2642 145.002 88.0474 141.175 88.8307 137.404C91.8999 122.703 96.1041 108.313 101.131 94.1699C104.321 85.193 107.598 76.2479 110.986 67.3428C112.617 63.0536 114.615 58.892 116.414 54.6667C116.853 53.6382 117.181 52.5619 116.869 51.1588C115.686 53.407 114.351 55.5915 113.344 57.9194C109.844 65.9954 106.479 74.1273 103.018 82.2192C96.7755 96.8087 90.6611 111.454 84.195 125.94C79.727 135.945 75.459 146.094 69.0568 155.119C68.2256 156.291 67.3783 157.606 66.2114 158.34C65.1244 159.017 63.4299 159.496 62.327 159.121C61.4318 158.818 60.9282 157.152 60.4247 156.012C60.2169 155.549 60.5046 154.88 60.5206 154.306C60.7764 144.755 63.0783 135.531 65.1164 126.267C66.603 119.514 68.1776 112.777 69.912 106.081C71.3107 100.683 72.9972 95.3578 74.1481 89.6894C73.4927 90.4946 72.7254 91.236 72.1899 92.113C65.2443 103.426 58.5144 114.874 51.345 126.043C45.5103 135.132 39.252 143.965 32.9858 152.775C28.4619 159.129 23.7542 165.355 18.8387 171.414C16.5048 174.292 13.6594 176.828 10.7341 179.132C8.56808 180.838 5.82658 182.026 3.06111 180.296C0.263666 178.55 -0.343779 175.696 0.207717 172.682C1.19082 167.293 2.76538 162.119 5.29107 157.176C9.4153 149.092 14.9303 142.132 21.3084 135.77C22.4434 134.638 23.4185 133.322 25.6645 134.709C24.9291 135.69 24.3856 136.671 23.6103 137.396C16.2251 144.324 10.4783 152.488 6.37009 161.64C4.58771 165.603 3.86038 170.163 3.34085 174.524C2.9652 177.673 5.86655 179.156 8.49614 177.266C11.1657 175.345 13.8353 173.176 15.7935 170.577C23.978 159.735 32.1146 148.853 39.8355 137.683C46.8051 127.598 53.3991 117.234 59.8252 106.79C66.7069 95.5969 73.3888 84.2761 79.791 72.8038C82.4446 68.0443 84.203 62.7826 86.2891 57.7201C91.0847 46.0804 96.4558 34.7436 103.905 24.5151C105.24 22.6814 106.91 21.079 108.421 19.3729C110.547 19.9708 111.634 20.8159 110.859 22.8568C110.403 24.0686 110.059 25.3522 109.428 26.4763C102.994 37.9246 96.8474 49.5404 89.9657 60.7097C82.4765 72.8597 78.7999 86.3569 75.0753 99.8223C71.8942 111.326 69.4085 123.022 66.8268 134.686C65.564 140.402 64.7567 146.23 63.8136 152.01C63.6298 153.126 63.7896 154.298 63.7896 155.717C65.6279 155.087 66.2753 153.644 67.1146 152.4C72.4217 144.452 76.3302 135.794 80.1427 127.072C86.2091 113.192 92.4195 99.3758 98.43 85.472C101.803 77.675 104.712 69.6707 108.165 61.9056C114.607 47.3958 122.128 33.4362 130.641 20.0266C133.342 15.7773 136.483 11.7911 139.528 7.77303C140.224 6.85621 141.359 6.27422 142.334 5.51685L142.294 5.54076Z" fill="#00BDF2"/>
<path d="M350.951 103.537C353.157 99.8622 356.866 98.6185 360.71 97.893C364.139 97.2472 366.13 99.6788 364.715 102.908C363.452 105.802 361.662 108.472 359.991 111.167C358.057 114.284 356.011 117.33 353.549 121.125C358.001 119.705 361.486 118.31 365.106 117.537C368.168 116.883 371.389 116.74 374.538 116.74C378.598 116.74 381.507 119.355 380.532 124.728C380.357 125.685 380.037 126.61 379.549 128.419C381.531 127.574 382.882 127.016 384.225 126.426C396.318 121.117 407.42 114.085 418.298 106.695C428.241 99.9499 438.671 94.0104 449.709 89.3227C463.473 83.4789 477.756 79.5326 492.934 79.9232C494.372 79.9631 495.843 79.9631 497.226 80.2979C497.777 80.4255 498.129 81.4061 498.992 82.5701C496.898 82.6817 495.515 82.8252 494.133 82.8252C486.436 82.8013 478.835 83.3992 471.305 85.2089C460.148 87.8956 449.421 91.8659 439.502 97.4625C427.434 104.271 415.996 112.195 404.047 119.227C396.462 123.692 388.429 127.407 380.612 131.489C378.766 132.453 376.992 133.561 374.762 134.845C374.01 133.793 373.059 132.469 371.82 130.747C373.595 127.885 375.401 124.975 377.527 121.547C376.56 120.893 375.513 119.594 374.394 119.53C371.692 119.371 368.879 119.434 366.265 120.056C362.908 120.853 359.695 122.281 356.426 123.445C355.603 123.739 354.812 124.114 353.981 124.353C352.414 124.8 350.744 125.23 349.745 123.413C348.921 121.922 349.808 120.806 350.696 119.538C354.324 114.34 357.817 109.046 361.286 103.745C361.734 103.067 361.797 102.142 362.093 101.154C359.352 100.301 357.417 101.632 355.571 102.908C354.021 103.976 352.59 104.622 350.84 103.458L350.935 103.537H350.951Z" fill="#00BDF2"/>
</svg>
